<?xml version="1.0" encoding="UTF-8"?>
<svg width="26px" height="26px" viewBox="0 0 26 26" version="1.1" xmlns="http://www.w3.org/2000/svg" xmlns:xlink="http://www.w3.org/1999/xlink">
    <!-- Generator: Sketch 51.2 (57519) - http://www.bohemiancoding.com/sketch -->
    <title> </title>
    <desc>Created with Sketch.</desc>
    <defs></defs>
    <g id="Page-1" stroke="none" stroke-width="1" fill="none" fill-rule="evenodd">
        <g id="Group-11" fill="#596274">
            <path d="M12.9995117,1.03996094 C6.40477276,1.03996094 1.03996094,5.35441221 1.03996094,10.6575197 C1.03996094,14.8409359 4.36644932,18.5182378 9.31735669,19.8077893 L9.70630208,19.9090122 L9.70630208,23.9454472 L12.165463,20.2535859 L12.4552655,20.2632922 C12.6362187,20.269532 12.8171719,20.2750784 12.9995117,20.2750784 C19.5942507,20.2750784 24.9590625,15.9599339 24.9590625,10.6575197 C24.9590625,5.35441221 19.5942507,1.03996094 12.9995117,1.03996094 M9.25565234,25.9990234 C8.97208966,25.9990234 8.66634115,25.7854848 8.66634115,25.3175024 L8.66634115,20.7070089 C3.46514984,19.2059986 0,15.2090821 0,10.6575197 C0,4.78035378 5.83140763,0 12.9995117,0 C20.1676158,0 25.9990234,4.78035378 25.9990234,10.6575197 C25.9990234,16.5339923 20.1676158,21.3150394 12.9995117,21.3150394 C12.903142,21.3150394 12.806079,21.3136528 12.7104026,21.3115728 L9.81099148,25.6634627 C9.62657174,25.9407856 9.40748664,25.9990234 9.25565234,25.9990234" id="Fill-1"></path>
            <path d="M6.8030778,6.24857063 C6.8030778,6.53559985 7.03602905,6.7685511 7.32305827,6.7685511 L18.6759652,6.7685511 C18.9629944,6.7685511 19.1959456,6.53559985 19.1959456,6.24857063 C19.1959456,5.96154141 18.9629944,5.72859016 18.6759652,5.72859016 L7.32305827,5.72859016 C7.03602905,5.72859016 6.8030778,5.96154141 6.8030778,6.24857063" id="Fill-3"></path>
            <path d="M6.8030778,9.10846321 C6.8030778,9.39549242 7.03602905,9.62844367 7.32305827,9.62844367 L18.6759652,9.62844367 C18.9629944,9.62844367 19.1959456,9.39549242 19.1959456,9.10846321 C19.1959456,8.82143399 18.9629944,8.58848274 18.6759652,8.58848274 L7.32305827,8.58848274 C7.03602905,8.58848274 6.8030778,8.82143399 6.8030778,9.10846321" id="Fill-5"></path>
            <path d="M6.8030778,11.9683558 C6.8030778,12.255385 7.03602905,12.4883363 7.32305827,12.4883363 L18.6759652,12.4883363 C18.9629944,12.4883363 19.1959456,12.255385 19.1959456,11.9683558 C19.1959456,11.6813266 18.9629944,11.4483753 18.6759652,11.4483753 L7.32305827,11.4483753 C7.03602905,11.4483753 6.8030778,11.6813266 6.8030778,11.9683558" id="Fill-7"></path>
            <path d="M6.8030778,14.8282484 C6.8030778,15.1152776 7.03602905,15.3482288 7.32305827,15.3482288 L18.6759652,15.3482288 C18.9629944,15.3482288 19.1959456,15.1152776 19.1959456,14.8282484 C19.1959456,14.5412191 18.9629944,14.3082679 18.6759652,14.3082679 L7.32305827,14.3082679 C7.03602905,14.3082679 6.8030778,14.5412191 6.8030778,14.8282484" id="Fill-9"></path>
        </g>
    </g>
</svg>