<?xml version="1.0" encoding="UTF-8"?>
<svg width="26px" height="26px" viewBox="0 0 26 26" version="1.1" xmlns="http://www.w3.org/2000/svg" xmlns:xlink="http://www.w3.org/1999/xlink">
    <!-- Generator: Sketch 51.2 (57519) - http://www.bohemiancoding.com/sketch -->
    <title>Slice</title>
    <desc>Created with Sketch.</desc>
    <defs></defs>
    <g id="Page-1" stroke="none" stroke-width="1" fill="none" fill-rule="evenodd">
        <path d="M13.0085449,16.0606379 C9.07682011,16.0606379 5.87860691,12.7668411 5.87860691,8.71842217 C5.87860691,4.67000325 9.07682011,1.37686666 13.0085449,1.37686666 C16.9402697,1.37686666 20.1384829,4.67000325 20.1384829,8.71842217 C20.1384829,12.7668411 16.9402697,16.0606379 13.0085449,16.0606379 M13.0085449,0.000325 C8.34010259,0.000325 4.54174353,3.91075965 4.54174353,8.71842217 C4.54174353,13.5260847 8.34010259,17.4371795 13.0085449,17.4371795 C17.6769873,17.4371795 21.4753463,13.5260847 21.4753463,8.71842217 C21.4753463,3.91075965 17.6769873,0.000325 13.0085449,0.000325" id="Fill-1" fill="#596274"></path>
        <path d="M12.4659772,4.42592294 L12.4659772,7.67812639 C12.0004794,7.51373365 11.6696298,7.30510671 11.4586811,7.04300262 C11.2233675,6.7518492 11.1041077,6.38609185 11.1041077,5.95629395 C11.1041077,5.501408 11.2426029,5.12046578 11.515105,4.82535109 C11.7581128,4.56126636 12.2127105,4.46223459 12.4659772,4.42592294 M15.0108264,10.7877241 C15.0108264,11.3356999 14.8550193,11.7899256 14.546611,12.1371971 C14.2901385,12.4250494 13.7803992,12.5716165 13.4989205,12.6336764 L13.4989205,8.97808348 C14.0823957,9.18538999 14.4690281,9.4144835 14.6774121,9.67790802 C14.8986197,9.95783783 15.0108264,10.3315177 15.0108264,10.7877241 M15.9027099,9.66536399 C15.7815266,9.34648168 15.6071252,9.0685325 15.3839941,8.83877878 C15.1589394,8.60704443 14.8639959,8.40766046 14.5068578,8.24524835 C14.33438,8.16866378 14.0041715,8.06699116 13.4989205,7.93362837 L13.4989205,4.41139828 C13.8054053,4.48930327 14.1875494,4.62398648 14.3138622,4.7698933 C14.4645398,4.94352901 14.5684112,5.18450632 14.659459,5.41822131 C14.783207,5.74040468 15.0191618,5.77605612 15.115339,5.77605612 C15.185869,5.77605612 15.2371635,5.75955083 15.2339576,5.75955083 C15.2679402,5.75096807 15.567372,5.67240286 15.6847082,5.44727063 C15.7398498,5.34031632 15.7462616,5.21949755 15.7026612,5.09867879 C15.5333893,4.62794775 15.2846109,4.25690871 14.94222,3.96509508 C14.5837996,3.65545573 14.1003487,3.4580524 13.4989205,3.37684634 L13.4989205,2.95299035 C13.4989205,2.65919609 13.267454,2.42085962 12.9827694,2.42085962 C12.6974437,2.42085962 12.4659772,2.65919609 12.4659772,2.95761183 L12.4659772,3.38410867 C11.7978661,3.47851897 11.2823562,3.6871459 10.9316299,4.00404758 C10.3475136,4.53089662 10.0634702,5.20035141 10.0634702,6.05070424 C10.0634702,6.52341591 10.1628533,6.95057296 10.359696,7.32029158 C10.5584623,7.69397148 10.8335291,7.97918299 11.2022085,8.19111098 C11.6260294,8.43538936 12.0504916,8.61166592 12.4659772,8.71597938 L12.4659772,12.5934034 C12.186422,12.5300231 11.6766828,12.3702518 11.4061042,12.0262815 C11.2400382,11.8143535 11.1124431,11.5205592 11.0162658,11.1277332 C10.9598419,10.8986397 10.7495343,10.6662451 10.3776491,10.7335867 C10.1782416,10.7705586 10.0718055,10.8781731 10.0173051,10.9626802 C9.92753969,11.1013247 9.9204867,11.2657175 9.94292805,11.3726718 C10.0211522,11.7357883 10.1474649,12.0599523 10.3180192,12.3372413 C10.5789801,12.7610972 10.8925178,13.072057 11.2490147,13.2602174 C11.5651172,13.4279112 11.974191,13.5526912 12.4659772,13.6312564 L12.4659772,14.4842501 C12.4659772,14.7780444 12.6974437,15.0163808 12.9827694,15.0163808 C13.267454,15.0163808 13.4989205,14.7780444 13.4989205,14.4842501 L13.4989205,13.6378586 C14.2446146,13.5711772 14.8428369,13.2846452 15.323723,12.7650585 C15.836027,12.2111408 16.0848054,11.5377247 16.0848054,10.706518 C16.0848054,10.3341586 16.0238932,9.9842463 15.9027099,9.66536399" id="Fill-3" fill="#596274"></path>
        <path d="M24.0688613,24.5148484 C24.0688613,24.7881761 23.8534243,25.0100073 23.5879752,25.0100073 L2.42898645,25.0100073 C2.1641785,25.0100073 1.94810034,24.7881761 1.94810034,24.5148484 L1.94810034,18.105512 C1.94810034,17.8321843 2.1641785,17.6103531 2.42898645,17.6103531 L23.5879752,17.6103531 C23.8534243,17.6103531 24.0688613,17.8321843 24.0688613,18.105512 L24.0688613,24.5148484 Z M25.0306335,24.4523799 L25.0306335,24.5148484 C25.0306335,25.3341713 24.3836814,26.000325 23.5879752,26.000325 L2.42898645,26.000325 C1.63328023,26.000325 0.986328125,25.3341713 0.986328125,24.5148484 L0.986328125,18.105512 C0.986328125,18.0988813 0.986370963,18.0922612 0.986456361,18.0856521 L0.986456361,18.0231836 C0.986456361,17.2038607 1.63340847,16.537707 2.42911468,16.537707 L23.5881034,16.537707 C24.3838096,16.537707 25.0307617,17.2038607 25.0307617,18.0231836 L25.0307617,24.43252 C25.0307617,24.4391507 25.0307189,24.4457707 25.0306335,24.4523799 Z" id="Combined-Shape" fill="#596274"></path>
        <path d="M9.72659342,20.7701269 C9.62656911,20.4294576 9.54962733,20.0016403 9.54193315,19.7883919 L9.53423897,19.6378636 L9.4572972,19.6378636 C9.46499138,20.0102231 9.40343795,20.3898449 9.28033111,20.7622044 L8.88087505,21.9974607 L10.1266907,21.9974607 L9.72659342,20.7701269 Z M12.0412585,23.7635273 C12.1182003,23.9767758 12.0489527,24.0797688 11.8335157,24.0797688 L11.2570936,24.0797688 C10.8800789,24.0797688 10.7569721,24.0163885 10.6877245,23.7866347 L10.4492049,23.042576 L8.55002541,23.042576 L8.30381172,23.7866347 C8.21917577,24.0163885 8.11915146,24.0797688 7.74277793,24.0797688 L7.21187967,24.0797688 C6.99644269,24.0797688 6.92719509,23.9767758 7.00413687,23.7635273 L8.84240416,18.7274315 C8.91165176,18.5135229 9.00398189,18.4580651 9.22711305,18.4580651 L9.81892355,18.4580651 C10.0420547,18.4580651 10.1343848,18.5135229 10.2036324,18.7115864 L12.0412585,23.7635273 Z" id="Fill-10" fill="#596274"></path>
        <path d="M12.4669389,18.7746367 C12.4669389,18.544883 12.5361865,18.4583952 12.774706,18.4583952 L13.4126816,18.4583952 C13.6358128,18.4583952 13.7204487,18.544883 13.7204487,18.7746367 L13.7204487,23.7631972 C13.7204487,23.9929509 13.6358128,24.0800989 13.4126816,24.0800989 L12.774706,24.0800989 C12.5361865,24.0800989 12.4669389,23.9929509 12.4669389,23.7631972 L12.4669389,18.7746367 Z" id="Fill-12" fill="#596274"></path>
        <path d="M17.7974011,20.5879745 C17.7974011,19.9462486 17.4511631,19.6300071 16.7670225,19.6300071 L15.91361,19.6300071 L15.91361,22.9000363 L16.7670225,22.9000363 C17.4511631,22.9000363 17.7974011,22.5831346 17.7974011,21.9499915 L17.7974011,20.5879745 Z M16.7747167,18.4581311 C18.2205809,18.4581311 19.0432167,19.2576476 19.0432167,20.5879745 L19.0432167,21.9499915 C19.0432167,23.2803183 18.2205809,24.0798348 16.7747167,24.0798348 L14.9749203,24.0798348 C14.7370419,24.0798348 14.659459,24.0006094 14.659459,23.7550106 L14.659459,18.7829553 C14.659459,18.5373565 14.7370419,18.4581311 14.9749203,18.4581311 L16.7747167,18.4581311 Z" id="Fill-14" fill="#596274"></path>
    </g>
</svg>