<?xml version="1.0" encoding="UTF-8"?>
<svg width="26px" height="26px" viewBox="0 0 26 26" version="1.1" xmlns="http://www.w3.org/2000/svg" xmlns:xlink="http://www.w3.org/1999/xlink">
    <!-- Generator: Sketch 51.2 (57519) - http://www.bohemiancoding.com/sketch -->
    <title> </title>
    <desc>Created with Sketch.</desc>
    <defs></defs>
    <g id="Page-1" stroke="none" stroke-width="1" fill="none" fill-rule="evenodd">
        <g id="Group-3" transform="translate(0.000000, 1.000000)" fill="#596274">
            <path d="M20.8963733,22.8439467 C18.65552,22.8439467 16.8327467,21.0211733 16.8327467,18.78032 C16.8327467,16.54016 18.65552,14.7166933 20.8963733,14.7166933 C23.1372267,14.7166933 24.96,16.54016 24.96,18.78032 C24.96,21.0211733 23.1372267,22.8439467 20.8963733,22.8439467 Z M5.10362667,22.8439467 C2.86277333,22.8439467 1.04,21.0211733 1.04,18.78032 C1.04,16.54016 2.86277333,14.7166933 5.10362667,14.7166933 C7.34378667,14.7166933 9.16725333,16.54016 9.16725333,18.78032 C9.16725333,21.0211733 7.34378667,22.8439467 5.10362667,22.8439467 Z M10.91376,9.75658667 C11.5516267,10.0436267 12.2567467,10.20656 13,10.20656 C13.7432533,10.20656 14.4483733,10.0436267 15.08624,9.75658667 L17.91088,14.64944 C16.76272,15.4821333 15.9695467,16.7758933 15.8190933,18.26032 L10.1809067,18.26032 C10.02976,16.7765867 9.23658667,15.4821333 8.08842667,14.6501333 L10.91376,9.75658667 Z M8.93637333,5.10362667 C8.93637333,2.86277333 10.7591467,1.04 13,1.04 C15.24016,1.04 17.0636267,2.86277333 17.0636267,5.10362667 C17.0636267,7.34378667 15.24016,9.16656 13,9.16656 C10.7591467,9.16656 8.93637333,7.34378667 8.93637333,5.10362667 Z M20.8963733,13.6766933 C20.15312,13.6766933 19.448,13.84032 18.8101333,14.12736 L15.9848,9.23381333 C17.2653867,8.30544 18.1036267,6.80229333 18.1036267,5.10362667 C18.1036267,2.28938667 15.81424,0 13,0 C10.18576,0 7.89637333,2.28938667 7.89637333,5.10362667 C7.89637333,6.80229333 8.73392,8.30544 10.0145067,9.23381333 L7.18917333,14.12736 C6.552,13.84032 5.84688,13.6766933 5.10362667,13.6766933 C2.28938667,13.6766933 0,15.9667733 0,18.78032 C0,21.59456 2.28938667,23.8839467 5.10362667,23.8839467 C7.74176,23.8839467 9.91952,21.8712 10.1809067,19.30032 L15.8190933,19.30032 C16.08048,21.8712 18.2575467,23.8839467 20.8963733,23.8839467 C23.7106133,23.8839467 26,21.59456 26,18.78032 C26,15.9667733 23.7106133,13.6766933 20.8963733,13.6766933 Z" id="Fill-1"></path>
        </g>
    </g>
</svg>