<?xml version="1.0" encoding="UTF-8"?>
<svg width="26px" height="26px" viewBox="0 0 26 26" version="1.1" xmlns="http://www.w3.org/2000/svg" xmlns:xlink="http://www.w3.org/1999/xlink">
    <!-- Generator: Sketch 51.2 (57519) - http://www.bohemiancoding.com/sketch -->
    <title>Slice</title>
    <desc>Created with Sketch.</desc>
    <defs></defs>
    <g id="Page-1" stroke="none" stroke-width="1" fill="none" fill-rule="evenodd">
        <path d="M18.6705568,15.0983787 L18.1830908,15.4494428 C18.1830908,15.4494428 17.7823009,15.6933327 17.9189023,16.1240903 C18.0672917,16.5905727 18.132472,16.7588911 18.132472,16.7588911 L20.619034,24.6403133 L13.8395816,19.992665 C13.8395816,19.992665 13.4304707,19.6896919 13.2966429,19.6024411 C13.1628151,19.5151904 12.7980824,19.4684735 12.5567763,19.6416009 C12.3161637,19.8154154 12.0686169,19.992665 12.0686169,19.992665 L5.2898579,24.6403133 L7.79098145,16.7513339 C7.79098145,16.7513339 7.87211021,16.504009 7.99484347,16.1453878 C8.157101,15.6699742 7.70499883,15.4157791 7.70499883,15.4157791 L7.25289665,15.0908216 L1.55030722,10.923396 L8.42961044,10.9824791 L9.03218221,10.9824791 C9.4939921,10.9824791 9.66110349,10.5805761 9.66110349,10.5805761 L9.87259301,9.95195845 L12.9540993,1.85687498 L15.9454624,9.92104283 L16.10772,10.4040135 C16.10772,10.4040135 16.2852325,10.9522505 16.8566009,10.9522505 L17.388445,10.9522505 L24.3578913,10.923396 L18.6705568,15.0983787 Z M25.2073164,9.89218825 C24.4639828,9.89218825 17.0417409,9.92104283 17.0417409,9.92104283 C17.0417409,9.92104283 13.8728652,1.35672894 13.7050604,0.829102349 C13.4457257,0.0122429535 12.4596992,0.0678910705 12.2038315,0.828415335 C11.9479639,1.5889396 8.77631457,9.95195845 8.77631457,9.95195845 C8.77631457,9.95195845 1.39498378,9.89218825 0.671758974,9.89218825 C-0.0514658275,9.89218825 -0.276823508,10.8821751 0.227284288,11.2449184 C0.732085492,11.6076617 6.90827275,16.1165332 6.90827275,16.1165332 C6.90827275,16.1165332 4.29065662,24.3215389 4.04865714,25.0696969 C3.80735107,25.8178549 4.62002553,26.3873893 5.65181701,25.6536586 C7.24388234,24.5214599 12.9540993,20.6295268 12.9540993,20.6295268 C12.9540993,20.6295268 19.4756038,25.1177878 20.2002154,25.6131248 C21.2923334,26.3585347 22.1549333,25.9477005 21.8539941,25.0532086 C21.5537483,24.1594036 19.0158742,16.1240903 19.0158742,16.1240903 C19.0158742,16.1240903 25.0942908,11.6770501 25.6573383,11.2627808 C26.2196924,10.8478244 25.95065,9.89218825 25.2073164,9.89218825 Z" id="Fill-1" fill="#596274"></path>
        <path d="M18.3555415,14.4925013 C18.3555415,17.4466606 15.9383203,19.8415906 12.9566649,19.8415906 C9.9750094,19.8415906 7.55848166,17.4466606 7.55848166,14.4925013 C7.55848166,11.538342 9.9750094,9.14341193 12.9566649,9.14341193 C15.9383203,9.14341193 18.3555415,11.538342 18.3555415,14.4925013 Z" id="Stroke-4" stroke="#596274" stroke-width="1.25"></path>
        <path d="M14.5053922,11.7830563 C14.744618,11.7830563 14.8208929,11.8593148 14.8208929,12.0956476 L14.8208929,12.6081599 C14.8208929,12.8444926 14.744618,12.913194 14.5053922,12.913194 L12.3488925,12.913194 L12.3488925,14.0048589 L14.1205506,14.0048589 C14.359083,14.0048589 14.4360514,14.0804304 14.4360514,14.3174502 L14.4360514,14.8285884 C14.4360514,15.0649212 14.359083,15.1336226 14.1205506,15.1336226 L12.3488925,15.1336226 L12.3488925,16.8889428 C12.3488925,17.1259625 12.2719242,17.2022211 12.0326984,17.2022211 L11.4093244,17.2022211 C11.1700985,17.2022211 11.0931302,17.1259625 11.0931302,16.8889428 L11.0931302,12.0956476 C11.0931302,11.8593148 11.1700985,11.7830563 11.4093244,11.7830563 L14.5053922,11.7830563 Z" id="Fill-6" fill="#596274"></path>
    </g>
</svg>