<?xml version="1.0" encoding="UTF-8"?>
<svg width="26px" height="26px" viewBox="0 0 26 26" version="1.1" xmlns="http://www.w3.org/2000/svg" xmlns:xlink="http://www.w3.org/1999/xlink">
    <!-- Generator: Sketch 51.2 (57519) - http://www.bohemiancoding.com/sketch -->
    <title>Slice</title>
    <desc>Created with Sketch.</desc>
    <defs></defs>
    <g id="Page-1" stroke="none" stroke-width="1" fill="none" fill-rule="evenodd">
        <g id="Group" transform="translate(0.000000, 6.000000)" fill="#596274">
            <path d="M10.5127008,8.91290713 L15.4873506,8.91290713 C16.2181215,8.91290713 17.1097451,9.39802056 17.5624902,10.0405499 L19.5689901,12.8891722 C19.704883,13.0821581 19.9565621,13.2070313 20.2096279,13.2070313 C20.3157075,13.2070313 20.4148539,13.1843271 20.4980536,13.1404322 L24.6628928,10.9502322 C24.9194253,10.8162773 25.0324382,10.4530098 24.910412,10.1586118 L21.4957569,1.90108827 C21.370264,1.59912219 20.9951719,1.40613635 20.7164529,1.50376448 L19.3769374,1.97374176 C18.7841394,2.18110694 17.8335826,2.34382049 17.2130514,2.34382049 L8.78700001,2.34382049 C8.16646878,2.34382049 7.215912,2.18110694 6.62311402,1.97374176 L5.28359856,1.50376448 C5.00487951,1.40613635 4.62909412,1.59912219 4.50429454,1.90108827 L1.08894613,10.1586118 C0.967613207,10.4530098 1.08062616,10.8162773 1.33715862,10.9502322 L5.50199782,13.1404322 C5.78071687,13.2872528 6.23762199,13.1631365 6.43106133,12.8891722 L8.43756119,10.0405499 C8.89030632,9.39802056 9.78192996,8.91290713 10.5127008,8.91290713 M20.2096279,14.3422421 C19.6362432,14.3422421 19.0753384,14.0508713 18.7446195,13.580894 L16.7381197,10.7322717 C16.4857472,10.3743019 15.8894826,10.048118 15.4873506,10.048118 L10.5127008,10.048118 C10.1098755,10.048118 9.51361087,10.3743019 9.26193173,10.7322717 L7.25543187,13.580894 C6.92471299,14.0508713 6.3631149,14.3422421 5.79042351,14.3422421 C5.52903773,14.3422421 5.2731986,14.2801839 5.05063935,14.1628788 L0.885106821,11.9734355 C0.12105608,11.5708141 -0.212436121,10.5476107 0.141162679,9.69166176 L3.55581776,1.43413821 C3.82691017,0.78025678 4.45437471,0.341308594 5.11789246,0.341308594 C5.28429189,0.341308594 5.44653134,0.368553654 5.60183748,0.423043773 L6.94135294,0.893021055 C7.43015128,1.06405949 8.27532174,1.20860966 8.78700001,1.20860966 L17.2130514,1.20860966 C17.7247297,1.20860966 18.5699001,1.06405949 19.0586985,0.893021055 L20.3982139,0.423043773 C20.5535201,0.368553654 20.7157595,0.341308594 20.8814656,0.341308594 C21.5456767,0.341308594 22.1731412,0.78025678 22.4435403,1.43413821 L25.8588887,9.69166176 C26.2124875,10.5476107 25.878302,11.5708141 25.1142513,11.9734355 L20.9494121,14.1628788 C20.7268528,14.2801839 20.4710137,14.3422421 20.2096279,14.3422421" id="Fill-1"></path>
            <path d="M19.1333009,7.1602173 C19.2546338,7.44477681 19.1423142,7.78231283 18.8816217,7.91475409 L17.9393849,8.39456987 C17.6786925,8.52701113 17.3694669,8.40365156 17.248134,8.11984885 C17.126801,7.83604614 17.2391207,7.49775332 17.4998131,7.36531205 L18.4420499,6.88549628 C18.7027424,6.75305502 19.011968,6.87641459 19.1333009,7.1602173" id="Fill-4"></path>
            <path d="M21.960982,5.72099701 C22.0823149,6.00479972 21.9699953,6.34309255 21.7093028,6.47553381 L20.767066,6.95534958 C20.5063736,7.08779085 20.197148,6.96443127 20.075815,6.68062856 C19.9544821,6.39606905 20.0668017,6.05853303 20.3274942,5.92609177 L21.269731,5.44627599 C21.5304234,5.31383473 21.839649,5.43719431 21.960982,5.72099701" id="Fill-6"></path>
            <path d="M21.4261464,8.49832814 C21.5474794,8.78213084 21.4351598,9.12042367 21.1744673,9.25286493 L20.2322305,9.73268071 C19.9715381,9.86512197 19.6623124,9.7417624 19.5409795,9.45795969 C19.4196466,9.17340018 19.5319662,8.83586416 19.7926587,8.70342289 L20.7348955,8.22360712 C20.9955879,8.09116586 21.3048135,8.21376862 21.4261464,8.49832814" id="Fill-8"></path>
            <path d="M19.6680671,4.38288617 C19.7894,4.66668888 19.6770804,5.00498171 19.4163879,5.13742297 L18.4741511,5.61723874 C18.2134587,5.74968001 17.9042331,5.62632043 17.7829001,5.34251772 C17.6615672,5.05795821 17.7745802,4.72042219 18.0345793,4.58798093 L18.9768161,4.10816515 C19.2375085,3.97572389 19.5467342,4.09908347 19.6680671,4.38288617" id="Fill-10"></path>
            <path d="M6.7661482,5.803489 C6.64481528,6.08729171 6.33558966,6.21065128 6.07489721,6.07821002 C5.81489809,5.94576876 5.70188514,5.60823274 5.82391139,5.32367323 C5.94524432,5.03987052 6.25446993,4.91651094 6.51446905,5.04895221 C6.7751615,5.18139347 6.88748112,5.51968629 6.7661482,5.803489" id="Fill-12"></path>
            <path d="M8.6512458,6.76304487 C8.52991288,7.04684758 8.22068726,7.17020715 7.95999481,7.03776589 C7.69999569,6.90532463 7.58698274,6.56778861 7.709009,6.2832291 C7.83034192,5.99942639 8.13956754,5.87606681 8.39956665,6.00850808 C8.6602591,6.14094934 8.77257872,6.47924216 8.6512458,6.76304487" id="Fill-14"></path>
            <path d="M4.94455971,7.38143205 C4.82322679,7.66599156 4.51400117,7.78859433 4.25330872,7.65615307 C3.99330961,7.5237118 3.88029666,7.18617579 4.00232291,6.90161627 C4.12365583,6.61781357 4.43288145,6.49445399 4.69288057,6.62689525 C4.95357301,6.75933652 5.06589263,7.09762934 4.94455971,7.38143205" id="Fill-16"></path>
            <path d="M6.82965731,8.34098792 C6.70832439,8.62479062 6.39909878,8.7481502 6.13840633,8.61570894 C5.87840721,8.48326767 5.76608759,8.14497485 5.88742051,7.86117214 C6.00875343,7.57736944 6.31797905,7.45400986 6.57797817,7.58645112 C6.83867062,7.71889239 6.95099024,8.05718521 6.82965731,8.34098792" id="Fill-18"></path>
        </g>
    </g>
</svg>