<?xml version="1.0" encoding="UTF-8"?>
<svg width="26px" height="26px" viewBox="0 0 26 26" version="1.1" xmlns="http://www.w3.org/2000/svg" xmlns:xlink="http://www.w3.org/1999/xlink">
    <!-- Generator: Sketch 51.2 (57519) - http://www.bohemiancoding.com/sketch -->
    <title>Slice</title>
    <desc>Created with Sketch.</desc>
    <defs></defs>
    <g id="Page-1" stroke="none" stroke-width="1" fill="none" fill-rule="evenodd">
        <path d="M24.96,23.4347826 C24.96,23.7227826 24.7263467,23.9565217 24.44,23.9565217 L8.44965333,23.9565217 C8.16330667,23.9565217 7.92965333,23.7227826 7.92965333,23.4347826 L7.92965333,22.0212174 C7.92965333,21.6156522 8.22917333,21.0306087 8.55850667,20.7947826 L11.4157333,18.7433043 L15.2935467,22.1033043 C15.5972267,22.3662609 15.99728,22.5116522 16.4202133,22.5116522 C16.8431467,22.5116522 17.2438933,22.3662609 17.5475733,22.1033043 L21.44688,18.7238261 L24.33184,20.7947826 C24.66048,21.0306087 24.96,21.6156522 24.96,22.0212174 L24.96,23.4347826 Z M1.56,17.5648696 C1.27296,17.5648696 1.04,17.3311304 1.04,17.0431304 L1.04,15.9321739 C1.04,15.525913 1.33952,14.9415652 1.66816,14.7057391 L4.09690667,12.9624348 L7.61488,16.0107826 C7.91925333,16.2744348 8.31930667,16.4191304 8.74224,16.4191304 C9.16517333,16.4191304 9.56522667,16.2744348 9.8696,16.0107826 L10.9144533,15.1231304 C11.2722133,15.7853913 11.7381333,16.3815652 12.2983467,16.8761739 C12.15552,16.9478261 12.0224,17.0250435 11.908,17.1071304 L11.2701333,17.5648696 L1.56,17.5648696 Z M10.1698133,12.4490435 C10.1975467,13.0166957 10.2946133,13.5655652 10.4637867,14.0838261 L9.18944,15.2212174 C8.96272,15.4173913 8.52106667,15.4173913 8.29504,15.2212174 L4.96704,12.3377391 L5.13621333,12.216 C5.32757333,12.0789565 5.61114667,11.9502609 5.90512,11.8570435 C6.75237333,12.344 7.73066667,12.6271304 8.77482667,12.6271304 C9.25669333,12.6271304 9.72261333,12.5617391 10.1698133,12.4490435 Z M4.02064,6.81356522 C4.02064,4.18330435 6.15333333,2.04347826 8.77482667,2.04347826 C11.3096533,2.04347826 13.3813333,4.04626087 13.51584,6.55617391 C11.7388267,7.49878261 10.4672533,9.26852174 10.2072533,11.352 C9.75381333,11.4973913 9.27541333,11.5836522 8.77482667,11.5836522 C6.15333333,11.5836522 4.02064,9.44382609 4.02064,6.81356522 Z M20.5767467,18.0991304 L16.8674133,21.3130435 C16.6406933,21.509913 16.19904,21.5092174 15.9730133,21.3130435 L12.2858667,18.1186087 L12.51328,17.9551304 C12.70672,17.8166957 12.99376,17.6873043 13.2905067,17.5933913 C14.21888,18.1366957 15.2949333,18.4532174 16.4451733,18.4532174 C17.5954133,18.4532174 18.6707733,18.1366957 19.59984,17.5933913 C19.8958933,17.6873043 20.1836267,17.8166957 20.3763733,17.9551304 L20.5767467,18.0991304 Z M21.6971733,12.1394783 C21.6971733,15.0452174 19.3412267,17.4097391 16.4451733,17.4097391 C13.54912,17.4097391 11.19248,15.0452174 11.19248,12.1394783 C11.19248,9.23373913 13.54912,6.86991304 16.4451733,6.86991304 C19.3412267,6.86991304 21.6971733,9.23373913 21.6971733,12.1394783 Z M24.9364267,19.946087 L20.9816533,17.1071304 C20.8672533,17.0250435 20.7348267,16.9478261 20.5913067,16.8761739 C21.9037867,15.717913 22.7371733,14.0267826 22.7371733,12.1394783 C22.7371733,8.65843478 19.9146133,5.82643478 16.4451733,5.82643478 C15.7754133,5.82643478 15.1306133,5.93356522 14.5253333,6.12904348 C14.1862933,3.24556522 11.7388267,1 8.77482667,1 C5.57994667,1 2.98064,3.608 2.98064,6.81356522 C2.98064,8.53182609 3.73221333,10.0733913 4.91712,11.1384348 C4.77568,11.210087 4.64394667,11.2866087 4.53093333,11.368 L1.06357333,13.8570435 C0.456906667,14.2918261 0,15.1843478 0,15.9321739 L0,17.0431304 C0,17.9064348 0.699573333,18.6090435 1.56,18.6090435 L9.81621333,18.6090435 L7.95322667,19.946087 C7.34725333,20.3815652 6.88965333,21.2733913 6.88965333,22.0212174 L6.88965333,23.4347826 C6.88965333,24.298087 7.58992,25 8.44965333,25 L24.44,25 C25.3004267,25 26,24.298087 26,23.4347826 L26,22.0212174 C26,21.2733913 25.5430933,20.3815652 24.9364267,19.946087 Z" id="Fill-1" fill="#596274"></path>
    </g>
</svg>