<?xml version="1.0" encoding="UTF-8"?>
<svg width="26px" height="26px" viewBox="0 0 26 26" version="1.1" xmlns="http://www.w3.org/2000/svg" xmlns:xlink="http://www.w3.org/1999/xlink">
    <!-- Generator: Sketch 51.2 (57519) - http://www.bohemiancoding.com/sketch -->
    <title> </title>
    <desc>Created with Sketch.</desc>
    <defs></defs>
    <g id="Page-1" stroke="none" stroke-width="1" fill="none" fill-rule="evenodd">
        <path d="M24.4245799,11.788857 C21.8911711,16.7467086 14.5627282,21.9548608 13.1199193,22.9486017 C13.0762399,22.9791262 13.0436536,22.9825178 13.0200806,22.9825178 C12.961148,22.9825178 12.8855756,22.9526717 12.8072299,22.8984059 C10.7924281,21.5051337 4.02696486,16.5859464 1.57536844,11.788857 C0.712179088,10.0998366 0.902150078,7.97533376 2.08288218,6.10587981 C3.28649399,4.20115315 5.23750992,3.01748219 7.17396603,3.01748219 C9.08268915,3.01748219 10.8804803,4.12992939 12.389155,6.23204761 C12.2976361,6.36703358 11.6424442,7.45370456 11.3956206,8.02349459 C11.1328505,8.62991398 12.011293,9.12915857 12.2934762,8.53698394 C12.5562463,7.98686523 13.4832215,6.45657201 13.7570848,6.02990781 C15.2352532,4.057349 16.9782717,3.01748219 18.8259823,3.01748219 C20.7631317,3.01748219 22.7141476,4.20115315 23.9170661,6.10587981 C25.0977982,7.97533376 25.2877692,10.0998366 24.4245799,11.788857 M24.8017485,5.57068418 C23.4102457,3.36817439 21.120194,2 18.8259823,2 C17.3103743,2 15.1291745,2.58539142 13.0630667,5.23966331 C13.0394937,5.26069127 13.0166139,5.28511084 12.9958142,5.31292202 C10.9123732,2.59353128 8.70413382,2 7.17396603,2 C4.87975434,2 2.58970259,3.36885271 1.19889308,5.57068418 C-0.17388998,7.7426695 -0.380500764,10.2375358 0.644926585,12.2440107 C3.20537499,17.2527364 10.1420894,22.3014831 12.2068106,23.7293497 C12.4633408,23.9063916 12.7441373,24 13.0200806,24 C13.2689842,24 13.5102612,23.9247063 13.7182586,23.7809022 C15.796153,22.3503222 22.7758535,17.2907224 25.3550217,12.2440107 C26.3804491,10.2368575 26.1738383,7.7426695 24.8017485,5.57068418" id="Fill-1" fill="#FFFFFF"></path>
    </g>
</svg>