<?xml version="1.0" encoding="UTF-8"?>
<svg width="26px" height="26px" viewBox="0 0 26 26" version="1.1" xmlns="http://www.w3.org/2000/svg" xmlns:xlink="http://www.w3.org/1999/xlink">
    <!-- Generator: Sketch 51.2 (57519) - http://www.bohemiancoding.com/sketch -->
    <title> </title>
    <desc>Created with Sketch.</desc>
    <defs></defs>
    <g id="Page-1" stroke="none" stroke-width="1" fill="none" fill-rule="evenodd">
        <path d="M24.4245799,12.2338051 C21.8911711,17.4170135 14.5627282,22.8618999 13.1199193,23.9008109 C13.0762399,23.9327228 13.0436536,23.9362686 13.0200806,23.9362686 C12.961148,23.9362686 12.8855756,23.9050658 12.8072299,23.8483335 C10.7924281,22.3917306 4.02696486,17.248944 1.57536844,12.2338051 C0.712179088,10.468011 0.902150078,8.24693985 2.08288218,6.29251071 C3.28649399,4.30120556 5.23750992,3.06373138 7.17396603,3.06373138 C9.08268915,3.06373138 10.8804803,4.22674437 12.389155,6.42441341 C12.2976361,6.5655351 11.6424442,7.70160022 11.3956206,8.2972898 C11.1328505,8.9312737 12.011293,9.45321124 12.2934762,8.83411957 C12.5562463,8.25899547 13.4832215,6.65914346 13.7570848,6.21308544 C15.2352532,4.15086486 16.9782717,3.06373138 18.8259823,3.06373138 C20.7631317,3.06373138 22.7141476,4.30120556 23.9170661,6.29251071 C25.0977982,8.24693985 25.2877692,10.468011 24.4245799,12.2338051 M24.8017485,5.73298801 C23.4102457,3.43036414 21.120194,2 18.8259823,2 C17.3103743,2 15.1291745,2.61200012 13.0630667,5.38692073 C13.0394937,5.40890451 13.0166139,5.43443406 12.9958142,5.46350939 C10.9123732,2.62050997 8.70413382,2 7.17396603,2 C4.87975434,2 2.58970259,3.43107329 1.19889308,5.73298801 C-0.17388998,8.00369994 -0.380500764,10.6119693 0.644926585,12.7096476 C3.20537499,17.9460426 10.1420894,23.2242777 12.2068106,24.7170475 C12.4633408,24.9021367 12.7441373,25 13.0200806,25 C13.2689842,25 13.5102612,24.9212839 13.7182586,24.7709432 C15.796153,23.2753368 22.7758535,17.9857552 25.3550217,12.7096476 C26.3804491,10.6112601 26.1738383,8.00369994 24.8017485,5.73298801" id="Fill-1" fill="#596274"></path>
    </g>
</svg>