<?xml version="1.0" encoding="UTF-8"?>
<svg width="26px" height="26px" viewBox="0 0 26 26" version="1.1" xmlns="http://www.w3.org/2000/svg" xmlns:xlink="http://www.w3.org/1999/xlink">
    <!-- Generator: Sketch 51.2 (57519) - http://www.bohemiancoding.com/sketch -->
    <title>Slice</title>
    <desc>Created with Sketch.</desc>
    <defs></defs>
    <g id="Page-1" stroke="none" stroke-width="1" fill="none" fill-rule="evenodd">
        <path d="M24.96,11.6324786 C24.96,11.9155556 24.7263467,12.1452991 24.44,12.1452991 L17.2092267,12.1452991 L15.3684267,13.8417094 L15.3684267,12.1452991 L14.3429867,12.1452991 C14.05664,12.1452991 13.8229867,11.9155556 13.8229867,11.6324786 L13.8229867,4.53846154 C13.8229867,4.25538462 14.05664,4.02564103 14.3429867,4.02564103 L24.44,4.02564103 C24.7263467,4.02564103 24.96,4.25538462 24.96,4.53846154 L24.96,11.6324786 Z M16.9,19.8499145 L10.64544,19.8499145 L10.64544,21.5511111 L8.56266667,19.8499145 L1.56,19.8499145 C1.27296,19.8499145 1.04,19.6201709 1.04,19.337094 L1.04,8.65333333 C1.04,8.37025641 1.27296,8.14051282 1.56,8.14051282 L12.7829867,8.14051282 L12.7829867,11.6324786 C12.7829867,12.4755556 13.4749333,13.1634188 14.3284267,13.1709402 L14.3284267,14.6806838 C14.3284267,15.1360684 14.6459733,15.3740171 14.9600533,15.3740171 C15.0827733,15.3740171 15.2685867,15.3377778 15.4571733,15.1641026 L17.42,13.3548718 L17.42,19.337094 C17.42,19.6201709 17.1863467,19.8499145 16.9,19.8499145 Z M24.44,3 L14.3429867,3 C13.4832533,3 12.7829867,3.68991453 12.7829867,4.53846154 L12.7829867,7.11487179 L1.56,7.11487179 C0.699573333,7.11487179 0,7.80478632 0,8.65333333 L0,19.337094 C0,20.185641 0.699573333,20.8755556 1.56,20.8755556 L8.18757333,20.8755556 L10.5670933,22.8188034 C10.7501333,22.968547 10.92624,23 11.0413333,23 C11.3616533,23 11.68544,22.7593162 11.68544,22.3005128 L11.68544,20.8755556 L16.9,20.8755556 C17.7604267,20.8755556 18.46,20.185641 18.46,19.337094 L18.46,13.1709402 L24.44,13.1709402 C25.3004267,13.1709402 26,12.4810256 26,11.6324786 L26,4.53846154 C26,3.68991453 25.3004267,3 24.44,3 Z" id="Fill-1" fill="#596274"></path>
    </g>
</svg>