<?xml version="1.0" encoding="UTF-8"?>
<svg width="26px" height="26px" viewBox="0 0 26 26" version="1.1" xmlns="http://www.w3.org/2000/svg" xmlns:xlink="http://www.w3.org/1999/xlink">
    <!-- Generator: Sketch 51.2 (57519) - http://www.bohemiancoding.com/sketch -->
    <title>Slice</title>
    <desc>Created with Sketch.</desc>
    <defs></defs>
    <g id="Page-1" stroke="none" stroke-width="1" fill="none" fill-rule="evenodd">
        <path d="M24.96,24.44 C24.96,24.72704 24.72704,24.96 24.44,24.96 L1.56,24.96 C1.27296,24.96 1.04,24.72704 1.04,24.44 L1.04,21.70064 C1.04,21.2964267 1.33952,20.7133333 1.66816,20.4782933 L6.81338667,16.7973867 L11.9704,21.2506667 C12.2747733,21.5127467 12.6748267,21.65696 13.09776,21.65696 C13.5206933,21.65696 13.9207467,21.5127467 14.22512,21.2506667 L19.2933867,16.8736533 L24.33184,20.4782933 C24.66048,20.7133333 24.96,21.2964267 24.96,21.70064 L24.96,24.44 Z M13,16.9866667 C14.6196267,16.9866667 16.1338667,16.5304533 17.4234667,15.7407467 C17.7285333,15.83504 18.02528,15.9667733 18.22288,16.1082133 L18.4232533,16.25104 L13.54496,20.46304 C13.31824,20.6592533 12.8765867,20.65856 12.65056,20.46304 L7.68352,16.1747733 L7.77642667,16.1082133 C7.97472,15.9667733 8.27146667,15.83504 8.57653333,15.7407467 C9.86544,16.5304533 11.3803733,16.9866667 13,16.9866667 Z M5.54666667,8.49333333 C5.54666667,4.38325333 8.88992,1.04 13,1.04 C17.1093867,1.04 20.4533333,4.38325333 20.4533333,8.49333333 C20.4533333,12.6034133 17.1093867,15.9466667 13,15.9466667 C8.88992,15.9466667 5.54666667,12.6034133 5.54666667,8.49333333 Z M24.93712,19.6324267 L18.82816,15.2623467 C18.7102933,15.17776 18.57232,15.09872 18.42256,15.0245333 C20.2973333,13.4652267 21.4933333,11.1162133 21.4933333,8.49333333 C21.4933333,3.80986667 17.6834667,0 13,0 C8.31653333,0 4.50666667,3.80986667 4.50666667,8.49333333 C4.50666667,11.1162133 5.70266667,13.4652267 7.57674667,15.0245333 C7.42768,15.09872 7.28970667,15.17776 7.17184,15.2623467 L1.06357333,19.6324267 C0.456906667,20.0664533 0,20.9553067 0,21.70064 L0,24.44 C0,25.3004267 0.699573333,26 1.56,26 L24.44,26 C25.3004267,26 26,25.3004267 26,24.44 L26,21.70064 C26,20.9553067 25.5430933,20.0664533 24.93712,19.6324267 Z" id="Fill-1" fill="#596274"></path>
    </g>
</svg>