<?xml version="1.0" encoding="UTF-8"?>
<svg width="26px" height="26px" viewBox="0 0 26 26" version="1.1" xmlns="http://www.w3.org/2000/svg" xmlns:xlink="http://www.w3.org/1999/xlink">
    <!-- Generator: Sketch 51.2 (57519) - http://www.bohemiancoding.com/sketch -->
    <title>Slice</title>
    <desc>Created with Sketch.</desc>
    <defs></defs>
    <g id="Page-1" stroke="none" stroke-width="1" fill="none" fill-rule="evenodd">
        <g id="Group-23" transform="translate(0.000000, 3.000000)" fill="#596274">
            <path d="M24.96,18.5405248 C24.96,18.8084196 24.7263467,19.0270165 24.44,19.0270165 L1.56,19.0270165 C1.27296,19.0270165 1.04,18.8084196 1.04,18.5405248 L1.04,4.30447897 C1.04,4.03593552 1.27296,3.81798722 1.56,3.81798722 L19.1387733,3.81798722 C19.2906133,3.81798722 19.4736533,3.85366328 19.65808,3.90815036 L19.6587733,7.31813317 C19.6587733,8.12311484 20.3583467,8.77760841 21.2187733,8.77760841 L24.8629333,8.77760841 C24.9218667,8.95079947 24.96,9.12204456 24.96,9.26410015 L24.96,18.5405248 Z M2.71509333,1.45947524 C2.71509333,1.19093179 2.94874667,0.972983492 3.23509333,0.972983492 L23.0242133,0.972983492 C23.3112533,0.972983492 23.5442133,1.19093179 23.5442133,1.45947524 L23.5442133,5.79249505 L21.2818667,3.67528298 C20.7757333,3.202413 19.8542933,2.84500373 19.1387733,2.84500373 L2.71509333,2.84500373 L2.71509333,1.45947524 Z M24.2243733,7.80462491 L21.2187733,7.80462491 C20.9317333,7.80462491 20.6987733,7.58667661 20.6987733,7.31813317 L20.69808,4.50556222 L24.2243733,7.80462491 Z M25.1395733,7.28829501 C25.1298667,7.27856517 25.1229333,7.26883534 25.1125333,7.2591055 L24.5842133,6.76547855 L24.5842133,1.45947524 C24.5842133,0.654493562 23.88464,0 23.0242133,0 L3.23509333,0 C2.37536,0 1.67509333,0.654493562 1.67509333,1.45947524 L1.67509333,2.84500373 L1.56,2.84500373 C0.699573333,2.84500373 0,3.49949729 0,4.30447897 L0,18.5405248 C0,19.3455064 0.699573333,20 1.56,20 L24.44,20 C25.3004267,20 26,19.3455064 26,18.5405248 L26,9.26410015 C26,8.60766062 25.63184,7.76765154 25.1395733,7.28829501 Z" id="Fill-1"></path>
            <path d="M3.93633763,6.16134043 L5.33261803,8.332644 L5.33261803,6.14148767 C5.33261803,5.99884192 5.36194564,5.89222526 5.42203147,5.82090238 C5.481402,5.74957951 5.56151645,5.71428571 5.66237482,5.71428571 C5.76680973,5.71428571 5.8490701,5.74957951 5.90915594,5.82090238 C5.96995708,5.89222526 6,5.99884192 6,6.14148767 L6,9.03925515 C6,9.36278159 5.86981402,9.52380952 5.60872675,9.52380952 C5.54363376,9.52380952 5.48497854,9.51425079 5.43276109,9.49513332 C5.38054363,9.47601585 5.33190272,9.44513378 5.28612303,9.4032224 C5.24034335,9.36131102 5.1981402,9.31278205 5.15879828,9.25690021 C5.11945637,9.20028309 5.08082976,9.14293067 5.04148784,9.08410768 L3.6795422,6.93780388 L3.6795422,9.09660757 C3.6795422,9.23778274 3.64806867,9.34366412 3.58440629,9.41572228 C3.52074392,9.48778044 3.43919886,9.52380952 3.3397711,9.52380952 C3.23748212,9.52380952 3.15450644,9.48778044 3.09298999,9.41425171 C3.03075823,9.34219355 3,9.23557688 3,9.09660757 L3,6.25398664 C3,6.13339951 3.01287554,6.03928273 3.03934192,5.97016572 C3.07010014,5.8951664 3.12160229,5.83340227 3.19313305,5.78560859 C3.26466381,5.73781491 3.34191702,5.71428571 3.42560801,5.71428571 C3.490701,5.71428571 3.54649499,5.72457974 3.59298999,5.74663836 C3.63948498,5.76869698 3.68025751,5.79737319 3.71530758,5.83487284 C3.75035765,5.87163721 3.78612303,5.91943089 3.82260372,5.97825388 C3.85908441,6.03634158 3.89699571,6.09810572 3.93633763,6.16134043" id="Fill-3"></path>
            <path d="M9.56432824,6.1607321 L7.78824748,6.1607321 L7.78824748,6.86261653 L9.42376391,6.86261653 C9.54413668,6.86261653 9.63344551,6.88200245 9.69324359,6.92191464 C9.75226508,6.96125666 9.78177582,7.01371269 9.78177582,7.07871255 C9.78177582,7.1437124 9.75304168,7.1967386 9.69479679,7.23722097 C9.6357753,7.27827351 9.54568988,7.29879978 9.42376391,7.29879978 L7.78824748,7.29879978 L7.78824748,8.111298 L9.62567952,8.111298 C9.74915868,8.111298 9.8423505,8.13239445 9.90525498,8.17515751 C9.96815946,8.2173504 10,8.27322747 10,8.3433589 C10,8.41120962 9.96815946,8.46594635 9.90525498,8.50813924 C9.8423505,8.55033213 9.74915868,8.57142857 9.62567952,8.57142857 L7.48304427,8.57142857 C7.311416,8.57142857 7.18793684,8.54349004 7.11338338,8.48761297 C7.03805333,8.4317359 7,8.34164837 7,8.21678023 L7,6.06893406 C7,5.98568863 7.01708517,5.91840807 7.0504789,5.86538187 C7.08464924,5.81292585 7.13668134,5.77472418 7.208905,5.75077686 C7.28035206,5.72625937 7.37199068,5.71428571 7.48304427,5.71428571 L9.56432824,5.71428571 C9.6901372,5.71428571 9.78332902,5.73481199 9.8439037,5.77586453 C9.90525498,5.81691707 9.93631892,5.87051344 9.93631892,5.93665365 C9.93631892,6.00450438 9.90525498,6.05867092 9.8439037,6.09915329 C9.78332902,6.14020583 9.6901372,6.1607321 9.56432824,6.1607321" id="Fill-5"></path>
            <path d="M12.5158228,8.88055724 L12.0031646,6.67144511 L11.4841772,8.88055724 C11.4436709,9.04817041 11.4113924,9.16799912 11.3879747,9.24151366 C11.3639241,9.31355792 11.3221519,9.37898587 11.2632911,9.43706236 C11.2044304,9.49440371 11.1253165,9.52380952 11.0272152,9.52380952 C10.9481013,9.52380952 10.8829114,9.50690118 10.8316456,9.47234934 C10.7803797,9.4377975 10.7392405,9.3892779 10.7075949,9.32679054 C10.6753165,9.26356803 10.6493671,9.18931834 10.6297468,9.10257117 C10.6094937,9.01655915 10.5911392,8.9364283 10.5753165,8.86291375 L10.0474684,6.38326809 C10.0158228,6.23917958 10,6.12890776 10,6.05392292 C10,5.95835401 10.028481,5.87748801 10.0867089,5.81279521 C10.1443038,5.74736726 10.2158228,5.71428571 10.3006329,5.71428571 C10.4177215,5.71428571 10.4962025,5.7576593 10.5367089,5.84514161 C10.5772152,5.93262392 10.6120253,6.05906894 10.6424051,6.22447667 L11.0575949,8.3755123 L11.5227848,6.36268402 C11.5575949,6.20903861 11.5886076,6.09141534 11.6158228,6.01128448 C11.6436709,5.93041848 11.6879747,5.86131481 11.75,5.80250317 C11.8120253,5.74369153 11.8968354,5.71428571 12.0031646,5.71428571 C12.1113924,5.71428571 12.1955696,5.74516182 12.2550633,5.8061789 C12.3151899,5.86719597 12.3563291,5.93409421 12.3797468,6.00613846 C12.4025316,6.07818272 12.4335443,6.19727629 12.4727848,6.36268402 L12.9417722,8.3755123 L13.3575949,6.22447667 C13.3772152,6.11199941 13.3968354,6.0245171 13.414557,5.96055945 C13.4329114,5.89733694 13.4639241,5.83999559 13.5075949,5.7900057 C13.5518987,5.74001581 13.6151899,5.71428571 13.6993671,5.71428571 C13.7829114,5.71428571 13.8537975,5.74663211 13.9120253,5.81132492 C13.9708861,5.87601772 14,5.95614857 14,6.05392292 C14,6.12229145 13.9841772,6.23182812 13.9525316,6.38326809 L13.4246835,8.86291375 C13.3879747,9.03052692 13.3582278,9.15256106 13.3348101,9.23122163 C13.3107595,9.3084119 13.2702532,9.37751558 13.2139241,9.43559207 C13.1563291,9.49440371 13.0759494,9.52380952 12.9721519,9.52380952 C12.8740506,9.52380952 12.7955696,9.49513885 12.7367089,9.43853265 C12.6772152,9.3811913 12.6360759,9.31723365 12.6132911,9.24592454 C12.5898734,9.17461543 12.5575949,9.05331642 12.5158228,8.88055724" id="Fill-7"></path>
            <path d="M17,8.35543791 C17,8.57822998 16.9412356,8.77822814 16.8237067,8.95616768 C16.7061778,9.13410722 16.5336514,9.27307653 16.3076344,9.37307562 C16.0808639,9.47380998 15.8119036,9.52380952 15.5015068,9.52380952 C15.1285786,9.52380952 14.8211954,9.4554278 14.5793571,9.31792906 C14.4075841,9.21940056 14.2682069,9.08704883 14.1604721,8.92234446 C14.0534907,8.75690481 14,8.59661216 14,8.44073124 C14,8.3502909 14.0323958,8.27308573 14.096434,8.20838044 C14.1604721,8.14367515 14.2425917,8.11205779 14.3427926,8.11205779 C14.4234053,8.11205779 14.4912104,8.13705756 14.5469613,8.1870571 C14.6027122,8.23705664 14.6509292,8.31205596 14.6901055,8.41058446 C14.7383225,8.52823044 14.7903064,8.62602366 14.8460573,8.70469941 C14.9018081,8.78337515 14.9801607,8.84808044 15.0818684,8.89955056 C15.1828227,8.95102067 15.3161728,8.97602044 15.4804119,8.97602044 C15.7071823,8.97602044 15.8910095,8.92455033 16.0334003,8.8216101 C16.1742843,8.71866987 16.2458564,8.58999458 16.2458564,8.43558423 C16.2458564,8.31352653 16.2074335,8.21426274 16.131341,8.13779285 C16.0544952,8.06205825 15.9558011,8.00323526 15.8345053,7.96352975 C15.7139628,7.92308894 15.5519839,7.88044228 15.3493219,7.83485446 C15.0781015,7.77309032 14.8505776,7.70029687 14.6682572,7.61794469 C14.4851833,7.53485722 14.3405324,7.42162296 14.2327976,7.27824193 C14.1258162,7.13559618 14.0723255,6.95765664 14.0723255,6.7444233 C14.0723255,6.54148399 14.1288297,6.36207388 14.2418383,6.2039871 C14.3556002,6.0466356 14.5198393,5.92531319 14.7338021,5.84075514 C14.9485183,5.75619709 15.2009041,5.71428571 15.4909593,5.71428571 C15.7230035,5.71428571 15.9234053,5.74222663 16.0921647,5.79810847 C16.2616775,5.8547256 16.4018081,5.92898962 16.5133099,6.02163583 C16.6248117,6.11501733 16.7061778,6.21207526 16.7581617,6.31501549 C16.8093923,6.41722043 16.8350075,6.51648422 16.8350075,6.61354215 C16.8350075,6.70251193 16.8026118,6.78265825 16.7385736,6.85398112 C16.673782,6.925304 16.5939227,6.96059779 16.4974887,6.96059779 C16.4100954,6.96059779 16.3437971,6.93927446 16.2978403,6.89662779 C16.2526369,6.85398112 16.2036665,6.78412882 16.1501758,6.6863356 C16.0816173,6.54810158 15.9987443,6.43927905 15.9030638,6.36133859 C15.8073832,6.28339813 15.6521848,6.2444279 15.4397288,6.2444279 C15.2423405,6.2444279 15.0826218,6.28707457 14.9620794,6.37163261 C14.8407835,6.45619066 14.7805123,6.55766032 14.7805123,6.67677687 C14.7805123,6.7503056 14.8008538,6.8142756 14.8422903,6.86795158 C14.8829734,6.92089227 14.940231,6.96721537 15.0118031,7.0061856 C15.0841286,7.04442055 15.1572074,7.07456733 15.2310397,7.09662595 C15.3048719,7.11794928 15.4269211,7.14956664 15.596434,7.19147802 C15.8096434,7.24000699 16.0025113,7.29441825 16.1742843,7.35250595 C16.347564,7.41132894 16.4937217,7.48265181 16.6150176,7.56647457 C16.73556,7.64956204 16.8304872,7.75617871 16.8982923,7.88411871 C16.9660974,8.01205871 17,8.16941021 17,8.35543791" id="Fill-9"></path>
            <path d="M12,11.9047619 C12,12.167619 11.7599314,12.3809524 11.4641326,12.3809524 L2.53586739,12.3809524 C2.24006859,12.3809524 2,12.167619 2,11.9047619 C2,11.6419048 2.24006859,11.4285714 2.53586739,11.4285714 L11.4641326,11.4285714 C11.7599314,11.4285714 12,11.6419048 12,11.9047619" id="Fill-11"></path>
            <path d="M12,13.8095238 C12,14.072381 11.7599314,14.2857143 11.4641326,14.2857143 L2.53586739,14.2857143 C2.24006859,14.2857143 2,14.072381 2,13.8095238 C2,13.5466667 2.24006859,13.3333333 2.53586739,13.3333333 L11.4641326,13.3333333 C11.7599314,13.3333333 12,13.5466667 12,13.8095238" id="Fill-13"></path>
            <path d="M12,16.6666667 C12,16.9295238 11.7599314,17.1428571 11.4641326,17.1428571 L2.53586739,17.1428571 C2.24006859,17.1428571 2,16.9295238 2,16.6666667 C2,16.4038095 2.24006859,16.1904762 2.53586739,16.1904762 L11.4641326,16.1904762 C11.7599314,16.1904762 12,16.4038095 12,16.6666667" id="Fill-15"></path>
            <path d="M24,11.9047619 C24,12.167619 23.7599314,12.3809524 23.4641326,12.3809524 L14.5358674,12.3809524 C14.2400686,12.3809524 14,12.167619 14,11.9047619 C14,11.6419048 14.2400686,11.4285714 14.5358674,11.4285714 L23.4641326,11.4285714 C23.7599314,11.4285714 24,11.6419048 24,11.9047619" id="Fill-17"></path>
            <path d="M24,13.8095238 C24,14.072381 23.7599314,14.2857143 23.4641326,14.2857143 L14.5358674,14.2857143 C14.2400686,14.2857143 14,14.072381 14,13.8095238 C14,13.5466667 14.2400686,13.3333333 14.5358674,13.3333333 L23.4641326,13.3333333 C23.7599314,13.3333333 24,13.5466667 24,13.8095238" id="Fill-19"></path>
            <path d="M24,16.6666667 C24,16.9295238 23.7599314,17.1428571 23.4641326,17.1428571 L14.5358674,17.1428571 C14.2400686,17.1428571 14,16.9295238 14,16.6666667 C14,16.4038095 14.2400686,16.1904762 14.5358674,16.1904762 L23.4641326,16.1904762 C23.7599314,16.1904762 24,16.4038095 24,16.6666667" id="Fill-21"></path>
        </g>
    </g>
</svg>