<?xml version="1.0" encoding="UTF-8"?>
<svg width="26px" height="26px" viewBox="0 0 26 26" version="1.1" xmlns="http://www.w3.org/2000/svg" xmlns:xlink="http://www.w3.org/1999/xlink">
    <!-- Generator: Sketch 51.2 (57519) - http://www.bohemiancoding.com/sketch -->
    <title>Slice</title>
    <desc>Created with Sketch.</desc>
    <defs></defs>
    <g id="Page-1" stroke="none" stroke-width="1" fill="none" fill-rule="evenodd">
        <g id="Group-9" transform="translate(0.000000, 4.000000)" fill="#FFFFFF">
            <path d="M25,8.5 C25,8.776 24.7932308,9 24.5384615,9 L21.4615385,9 C21.2067692,9 21,8.776 21,8.5 C21,8.224 21.2067692,8 21.4615385,8 L24.5384615,8 C24.7932308,8 25,8.224 25,8.5" id="Fill-1"></path>
            <path d="M18.9576819,14.8235134 L5.78417066,10.7892059 L5.78417066,5.62749529 L18.9576819,1.59658759 L18.9576819,14.8235134 Z M8.67486624,16.879086 C8.77353902,17.1429173 8.63386839,17.4366677 8.36356056,17.5325445 L7.19338475,17.9493708 C6.9237718,18.0452477 6.62358418,17.9085722 6.52560628,17.6447408 L4.26030158,11.5535008 C4.4784935,11.5528208 4.64804392,11.5514608 4.77798624,11.5501009 L6.93905913,12.2110392 L8.67486624,16.879086 Z M1.04231812,8.21617032 C1.04231812,6.93781228 2.10478771,5.89744643 3.41185463,5.89744643 L4.74185255,5.89744643 L4.74185255,10.5342142 C4.26725036,10.5348942 3.63282607,10.5348942 3.41185463,10.5348942 C2.10478771,10.5348942 1.04231812,9.49452836 1.04231812,8.21617032 Z M19.4788409,0 C19.1911611,0 18.9576819,0.227792523 18.9576819,0.509983261 L18.9576819,0.535142435 L4.74185255,4.8774799 L3.41185463,4.8774799 C1.53498714,4.8774799 0,6.3795506 0,8.21617032 C0,9.96507291 1.39323188,11.4079856 3.14641095,11.5419412 L5.54582725,17.9935694 C5.84115072,18.7857434 6.73962893,19.1964499 7.54985755,18.9074594 L8.72003335,18.4913131 C9.53026197,18.2023225 9.94927385,17.3231114 9.65464526,16.5302574 L8.19053575,12.5938666 L18.9576819,15.8876785 L18.9576819,15.9223574 C18.9576819,16.2045481 19.1911611,16.4323406 19.4788409,16.4323406 C19.7665207,16.4323406 20,16.2045481 20,15.9223574 L20,0.509983261 C20,0.227792523 19.7665207,0 19.4788409,0 Z" id="Fill-3"></path>
            <path d="M23.9731909,3.315223 C23.8896544,3.06678545 23.636692,2.93841541 23.4078493,3.0291047 L21,3.98006487 L21,5 L23.7096393,3.92897232 C23.9384821,3.83892169 24.0567273,3.56366055 23.9731909,3.315223" id="Fill-5"></path>
            <path d="M23.7096393,13.0705291 L21,12 L21,13.0194299 L23.4078493,13.9711532 C23.636692,14.0612156 23.8902427,13.9334675 23.9731909,13.6843587 C24.0567273,13.4358887 23.9384821,13.1612303 23.7096393,13.0705291" id="Fill-7"></path>
        </g>
    </g>
</svg>