<?xml version="1.0" encoding="UTF-8"?>
<svg width="26px" height="26px" viewBox="0 0 26 26" version="1.1" xmlns="http://www.w3.org/2000/svg" xmlns:xlink="http://www.w3.org/1999/xlink">
    <!-- Generator: Sketch 51.2 (57519) - http://www.bohemiancoding.com/sketch -->
    <title> </title>
    <desc>Created with Sketch.</desc>
    <defs></defs>
    <g id="Page-1" stroke="none" stroke-width="1" fill="none" fill-rule="evenodd">
        <g id="Group-7" transform="translate(0.000000, 4.000000)" fill="#596274">
            <path d="M12.9160131,5.8582487 C10.5655701,5.8582487 8.65406107,7.76183492 8.65406107,10.1016884 C8.65406107,12.4408526 10.5655701,14.3444388 12.9160131,14.3444388 C15.266456,14.3444388 17.1779651,12.4408526 17.1779651,10.1016884 C17.1779651,7.76183492 15.266456,5.8582487 12.9160131,5.8582487 M12.9160131,15.3782474 C9.9930174,15.3782474 7.61557374,13.0108258 7.61557374,10.1016884 C7.61557374,7.19186178 9.9930174,4.8244401 12.9160131,4.8244401 C15.8390087,4.8244401 18.2164524,7.19186178 18.2164524,10.1016884 C18.2164524,13.0108258 15.8390087,15.3782474 12.9160131,15.3782474" id="Fill-1"></path>
            <path d="M24.173908,4.65213867 C24.173908,4.93746984 23.9412869,5.16904297 23.6546644,5.16904297 L20.5966653,5.16904297 C20.3100428,5.16904297 20.0774217,4.93746984 20.0774217,4.65213867 C20.0774217,4.3668075 20.3100428,4.13523437 20.5966653,4.13523437 L23.6546644,4.13523437 C23.9412869,4.13523437 24.173908,4.3668075 24.173908,4.65213867" id="Fill-3"></path>
            <path d="M24.9236959,16.8421204 C24.9236959,17.1267624 24.6910747,17.3590247 24.4044522,17.3590247 L1.55773099,17.3590247 C1.27110849,17.3590247 1.03848733,17.1267624 1.03848733,16.8421204 L1.03848733,3.69000747 C1.03848733,3.4046763 1.27110849,3.17310318 1.55773099,3.17310318 L24.4044522,3.17310318 C24.6910747,3.17310318 24.9236959,3.4046763 24.9236959,3.69000747 L24.9236959,16.8421204 Z M2.704221,1.55071289 C2.704221,1.26538172 2.93753449,1.03380859 3.22346467,1.03380859 L5.01935542,1.03380859 C5.30597792,1.03380859 5.53859908,1.26538172 5.53859908,1.55071289 L5.53859908,2.13929458 L2.704221,2.13929458 L2.704221,1.55071289 Z M24.4044522,2.13929458 L6.57708641,2.13929458 L6.57708641,1.55071289 C6.57708641,0.695408581 5.8785306,0 5.01935542,0 L3.22346467,0 C2.36428948,0 1.66573367,0.695408581 1.66573367,1.55071289 L1.66573367,2.13929458 L1.55773099,2.13929458 C0.698555809,2.13929458 0,2.83470316 0,3.69000747 L0,16.8421204 C0,17.6974247 0.698555809,18.3928333 1.55773099,18.3928333 L24.4044522,18.3928333 C25.2636274,18.3928333 25.9621832,17.6974247 25.9621832,16.8421204 L25.9621832,3.69000747 C25.9621832,2.83470316 25.2636274,2.13929458 24.4044522,2.13929458 Z" id="Fill-5"></path>
        </g>
    </g>
</svg>