<?xml version="1.0" encoding="UTF-8"?>
<svg width="26px" height="26px" viewBox="0 0 26 26" version="1.1" xmlns="http://www.w3.org/2000/svg" xmlns:xlink="http://www.w3.org/1999/xlink">
    <!-- Generator: Sketch 51.2 (57519) - http://www.bohemiancoding.com/sketch -->
    <title> </title>
    <desc>Created with Sketch.</desc>
    <defs></defs>
    <g id="Page-1" stroke="none" stroke-width="1" fill="none" fill-rule="evenodd">
        <path d="M23.5973994,23.58928 C22.7133959,24.47328 21.5049112,24.96 20.1951993,24.96 C18.7412735,24.96 17.2970545,24.3498667 16.2327836,23.2856 L11.0057229,18.05856 C10.851109,17.9039467 10.7103617,17.7410133 10.5765479,17.57392 C11.0126563,17.6668267 11.457778,17.7167467 11.9042865,17.7167467 C13.4920261,17.7167467 14.9612052,17.1218667 16.0414229,16.0416533 C17.079347,15.0037333 17.6582826,13.6226133 17.7075094,12.1166933 C17.7102828,12.05776 17.7130561,11.93088 17.7033494,11.66672 C17.6887894,11.2909333 17.6416425,10.9193067 17.5639889,10.5553067 C17.7380162,10.69328 17.9078836,10.8381867 18.0666575,10.99696 L22.6066222,15.5376 L22.6073155,15.5376 C22.6038488,15.5403733 22.6024622,15.5424533 22.6024622,15.5424533 L23.2847049,16.2246933 C24.3087623,17.24944 24.9022579,18.5861867 24.9549515,19.9888 C25.0069517,21.3768533 24.5313231,22.6560533 23.5973994,23.58928 M16.6640387,11.7055467 C16.7160389,13.0942933 16.239717,14.3728 15.3064866,15.3060267 C14.4224831,16.1900267 13.2139983,16.6767467 11.9042865,16.6767467 C11.1762836,16.6767467 10.4510541,16.52352 9.77435804,16.2378667 C9.51297034,15.62288 9.3604364,14.9662933 9.33478297,14.29376 C9.28278276,12.9057067 9.76811802,11.6272 10.7020417,10.69328 C11.5860452,9.80997333 12.79453,9.32325333 14.1042418,9.32325333 C14.8280847,9.32325333 15.5491542,9.4744 16.2223836,9.75797333 C16.4851579,10.3736533 16.6383852,11.0316267 16.6640387,11.7055467 M7.94187078,15.0023467 L2.71411675,9.77530667 C1.69005937,8.75056 1.09656368,7.41381333 1.04387014,6.01050667 C0.991869935,4.62245333 1.47720519,3.34394667 2.41112889,2.41072 C3.29513239,1.52672 4.50292384,1.04 5.81332902,1.04 C7.26725478,1.04 8.71147383,1.65013333 9.77574471,2.71370667 L14.3157094,7.25434667 L14.3164027,7.25434667 C14.312936,7.25781333 14.3115493,7.2592 14.3115493,7.2592 L14.9930987,7.94144 C15.146326,8.09466667 15.2863799,8.25690667 15.4201937,8.42330667 C14.987552,8.33178667 14.5465903,8.28325333 14.1042418,8.28325333 C12.5165022,8.28325333 11.0473231,8.87813333 9.96710547,9.95834667 C8.82656762,11.09888 8.23307194,12.6519467 8.29547218,14.33328 C8.31003224,14.70768 8.36064578,15.0765333 8.43760608,15.43984 C8.26565873,15.3032533 8.09856474,15.1597333 7.94187078,15.0023467 M25.9942623,19.9499733 C25.9367154,18.4184 25.3390597,16.9547733 24.3018289,15.7885867 L24.3025222,15.7885867 C24.2130819,15.6880533 24.1257215,15.58544 24.0293478,15.4890667 L18.8022871,10.2620267 C18.2746584,9.73509333 17.6652159,9.30869333 17.0107067,8.98352 C16.7465456,8.4552 16.413051,7.95738667 16.0109161,7.50533333 C15.9214757,7.4048 15.8341154,7.30218667 15.738435,7.20650667 L10.510681,1.97877333 C9.25296931,0.721066667 7.54112253,0 5.81332902,0 C4.22489607,0 2.75571692,0.59488 1.67549931,1.67509333 C0.534961459,2.81562667 -0.058534224,4.36938667 0.0045593591,6.05002667 C0.0669596062,7.71541333 0.768615718,9.29968 1.97918051,10.51024 L7.20624121,15.7379733 C7.73178995,16.26352 8.33984569,16.6885333 8.99227494,17.0137067 C9.31606289,17.66128 9.74107791,18.26448 10.2700933,18.7934933 L15.4978474,24.0212267 C16.7548657,25.2789333 18.4674058,26 20.1951993,26 C21.7829389,26 23.2521181,25.40512 24.3323357,24.3249067 C25.3702598,23.2869867 25.9491954,21.9058667 25.9984223,20.3999467 C25.9984223,20.3999467 26.003969,20.2141333 25.9942623,19.9499733" id="Fill-1" fill="#FFFFFF"></path>
    </g>
</svg>