<?xml version="1.0" encoding="UTF-8"?>
<svg width="26px" height="26px" viewBox="0 0 26 26" version="1.1" xmlns="http://www.w3.org/2000/svg" xmlns:xlink="http://www.w3.org/1999/xlink">
    <!-- Generator: Sketch 51.2 (57519) - http://www.bohemiancoding.com/sketch -->
    <title>Slice</title>
    <desc>Created with Sketch.</desc>
    <defs></defs>
    <g id="Page-1" stroke="none" stroke-width="1" fill="none" fill-rule="evenodd">
        <g id="Group-12" transform="translate(0.000000, 3.000000)" fill="#596274">
            <path d="M24.6315789,18.4482759 C24.6315789,18.7337931 24.4016842,18.9655172 24.1184211,18.9655172 L1.53947368,18.9655172 C1.25689474,18.9655172 1.02631579,18.7337931 1.02631579,18.4482759 L1.02631579,11.7531034 C1.02631579,11.4675862 1.25689474,11.2358621 1.53947368,11.2358621 L24.1184211,11.2358621 C24.4016842,11.2358621 24.6315789,11.4675862 24.6315789,11.7531034 L24.6315789,18.4482759 Z M1.03931579,8.20965517 C1.01536842,8.09034483 1.02563158,7.95310345 1.05778947,7.81724138 C1.06326316,7.82275862 1.29247368,7.29586207 1.49089474,7.16344828 L3.09810526,6.08689655 C3.19731579,6.11724138 3.29926316,6.14068966 3.40257895,6.16 L3.40257895,10.2013793 L1.53947368,10.2013793 C1.50389474,10.2013793 1.47036842,10.2089655 1.43547368,10.2117241 L1.03931579,8.20965517 Z M3.93421053,1.49448276 C4.18121053,1.49448276 4.41657895,1.54551724 4.63210526,1.63586207 C5.28484211,1.91724138 5.74326316,2.57034483 5.74326316,3.32965517 C5.74326316,4.34551724 4.92357895,5.17172414 3.91573684,5.17172414 C3.66805263,5.17172414 3.43268421,5.12068966 3.21715789,5.03034483 C2.56510526,4.74896552 2.106,4.09586207 2.106,3.33655172 C2.106,2.32068966 2.92636842,1.49448276 3.93421053,1.49448276 Z M6.35905263,7.15586207 C6.55747368,7.28896552 6.78463158,7.81724138 6.78942105,7.81241379 C6.82431579,7.95241379 6.83526316,8.0937931 6.81063158,8.21724138 L6.41310526,10.2013793 L4.44736842,10.2013793 L4.44736842,6.16413793 C4.55478947,6.14482759 4.66084211,6.12 4.76415789,6.08827586 L6.35905263,7.15586207 Z M9.94294737,8.20965517 C9.91968421,8.09034483 9.92926316,7.95310345 9.96210526,7.81724138 C9.96757895,7.82275862 10.1961053,7.29586207 10.3945263,7.16344828 L12.0017368,6.08689655 C12.1009474,6.11724138 12.2035789,6.14068966 12.3062105,6.16 L12.3062105,10.2013793 L10.3377368,10.2013793 L9.94294737,8.20965517 Z M12.8378421,1.49448276 C13.0855263,1.49448276 13.3208947,1.54551724 13.5364211,1.63586207 C14.1884737,1.91724138 14.6475789,2.57034483 14.6475789,3.32965517 C14.6475789,4.34551724 13.8272105,5.17172414 12.8193684,5.17172414 C12.5723684,5.17172414 12.337,5.12068966 12.1214737,5.03034483 C11.4687368,4.74896552 11.0103158,4.09586207 11.0103158,3.33655172 C11.0103158,2.32068966 11.83,1.49448276 12.8378421,1.49448276 Z M15.2626842,7.15586207 C15.4611053,7.28896552 15.6889474,7.81724138 15.6930526,7.81241379 C15.7279474,7.95241379 15.7388947,8.0937931 15.7142632,8.21724138 L15.3167368,10.2013793 L13.351,10.2013793 L13.351,6.16413793 C13.4591053,6.14482759 13.5651579,6.12 13.6684737,6.08827586 L15.2626842,7.15586207 Z M18.8472632,8.20965517 C18.8233158,8.09034483 18.8335789,7.95310345 18.8657368,7.81724138 C18.8712105,7.82275862 19.1004211,7.29586207 19.2988421,7.16344828 L20.9060526,6.08689655 C21.0052632,6.11724138 21.1072105,6.14068966 21.2105263,6.16 L21.2105263,10.2013793 L19.2413684,10.2013793 L18.8472632,8.20965517 Z M21.7421579,1.49448276 C21.9891579,1.49448276 22.2252105,1.54551724 22.4400526,1.63586207 C23.0927895,1.91724138 23.5512105,2.57034483 23.5512105,3.32965517 C23.5512105,4.34551724 22.7315263,5.17172414 21.7236842,5.17172414 C21.476,5.17172414 21.2406316,5.12068966 21.0257895,5.03034483 C20.3730526,4.74896552 19.9146316,4.09586207 19.9146316,3.33655172 C19.9146316,2.32068966 20.7343158,1.49448276 21.7421579,1.49448276 Z M24.167,7.15586207 C24.3654211,7.28896552 24.5925789,7.81724138 24.5973684,7.81241379 C24.6322632,7.95241379 24.6432105,8.0937931 24.6185789,8.21724138 L24.219,10.2117241 C24.1847895,10.2089655 24.1526316,10.2013793 24.1184211,10.2013793 L22.2553158,10.2013793 L22.2553158,6.16413793 C22.3627368,6.14482759 22.4694737,6.12 22.5727895,6.08827586 L24.167,7.15586207 Z M25.1864737,10.64 L25.6243684,8.42137931 C25.7762632,7.66137931 25.3937895,6.73034483 24.7533684,6.30137931 L23.5915789,5.52344828 C24.2053158,4.99517241 24.596,4.21172414 24.596,3.33655172 C24.596,2.14068966 23.8686842,1.11448276 22.8362105,0.680689655 C22.4941053,0.533793103 22.1184737,0.453103448 21.7236842,0.453103448 C20.15,0.453103448 18.8698421,1.74344828 18.8698421,3.32965517 C18.8698421,4.20413793 19.2605263,4.98827586 19.8742632,5.51655172 L18.7124737,6.29448276 C18.0720526,6.72344828 17.6895789,7.6537931 17.8414737,8.4137931 L18.2068421,10.2013793 L16.3683684,10.2013793 L16.7207368,8.42137931 C16.8726316,7.66137931 16.4894737,6.73034483 15.8490526,6.30137931 L14.6872632,5.52344828 C15.301,4.99517241 15.6916842,4.21172414 15.6916842,3.33655172 C15.6916842,2.14068966 14.9643684,1.11448276 13.9325789,0.680689655 C13.5904737,0.533793103 13.2141579,0.453103448 12.8193684,0.453103448 C11.2456842,0.453103448 9.96552632,1.74344828 9.96552632,3.32965517 C9.96552632,4.20413793 10.3562105,4.98827586 10.9699474,5.51655172 L9.80815789,6.29448276 C9.16773684,6.72344828 8.78526316,7.6537931 8.93715789,8.4137931 L9.30321053,10.2013793 L7.46405263,10.2013793 L7.81642105,8.42137931 C7.96831579,7.66137931 7.58584211,6.73034483 6.94542105,6.30137931 L5.78363158,5.52344828 C6.39736842,4.99517241 6.78805263,4.21172414 6.78805263,3.33655172 C6.78805263,2.14068966 6.06005263,1.11448276 5.02826316,0.680689655 C4.68615789,0.533793103 4.30984211,0.453103448 3.91573684,0.453103448 C2.34205263,0.453103448 1.06189474,1.74344828 1.06189474,3.32965517 C1.06189474,4.20413793 1.45257895,4.98827586 2.06631579,5.51655172 L0.904526316,6.29448276 C0.264105263,6.72344828 -0.118368421,7.6537931 0.0328421053,8.4137931 L0.483052632,10.6303448 C0.186789474,10.9131034 -8.13151629e-20,11.3103448 -8.13151629e-20,11.7531034 L-8.13151629e-20,18.4482759 C-8.13151629e-20,19.3041379 0.690368421,20 1.53947368,20 L24.1184211,20 C24.9675263,20 25.6578947,19.3041379 25.6578947,18.4482759 L25.6578947,11.7531034 C25.6578947,11.3158621 25.4758947,10.922069 25.1864737,10.64 Z" id="Fill-1"></path>
            <path d="M5.51210542,13.821488 L4.47195832,13.821488 L4.47195832,17.3930081 C4.47195832,17.5991804 4.42782715,17.7515687 4.34017775,17.8508132 C4.25252835,17.9506979 4.13913576,18 4,18 C3.85902544,18 3.74379405,17.9500576 3.65491879,17.8495326 C3.56604352,17.7483673 3.52191235,17.5966193 3.52191235,17.3930081 L3.52191235,13.821488 L2.48176525,13.821488 C2.3187251,13.821488 2.19797732,13.7843514 2.11890898,13.7094378 C2.03984064,13.6345243 2,13.5352798 2,13.4123447 C2,13.2849276 2.0410665,13.1844026 2.12381244,13.1107696 C2.20594545,13.0371366 2.32546736,13 2.48176525,13 L5.51210542,13 C5.67698437,13 5.79957095,13.0377769 5.87986515,13.1139711 C5.96015936,13.1901652 6,13.2894097 6,13.4123447 C6,13.5352798 5.95954643,13.6345243 5.87802636,13.7094378 C5.79650628,13.7843514 5.67453264,13.821488 5.51210542,13.821488" id="Fill-4"></path>
            <path d="M10.4194965,13.7808023 L8.05152897,13.7808023 L8.05152897,15.0089867 L10.231627,15.0089867 C10.3924649,15.0089867 10.5120797,15.0435009 10.5911472,15.1125293 C10.6702146,15.1822089 10.7100862,15.2733785 10.7100862,15.3873405 C10.7100862,15.5013024 10.6708904,15.5937744 10.5931745,15.6654077 C10.5147829,15.7370409 10.3944923,15.7728575 10.231627,15.7728575 L8.05152897,15.7728575 L8.05152897,17.1951029 L10.5012671,17.1951029 C10.6661598,17.1951029 10.7905052,17.2322219 10.8743031,17.3058088 C10.958101,17.3800469 11,17.4783798 11,17.6008075 C11,17.7193279 10.958101,17.815056 10.8743031,17.8892941 C10.7905052,17.962881 10.6661598,18 10.5012671,18 L7.6447035,18 C7.41561075,18 7.25071803,17.9511592 7.15070113,17.8534775 C7.05068424,17.7557958 7,17.5975514 7,17.3793957 L7,13.6206043 C7,13.474733 7.02297685,13.3562126 7.06757898,13.2643918 C7.11218111,13.1719198 7.18246325,13.104845 7.27842541,13.0631675 C7.37371178,13.0208388 7.49602973,13 7.6447035,13 L10.4194965,13 C10.5870924,13 10.7114377,13.0358166 10.7932083,13.1074499 C10.8743031,13.1790831 10.9148505,13.2728575 10.9148505,13.3887731 C10.9148505,13.5066424 10.8743031,13.6017192 10.7932083,13.6733524 C10.7114377,13.7449857 10.5870924,13.7808023 10.4194965,13.7808023" id="Fill-6"></path>
            <path d="M12.6727502,16.0277078 L14.2830268,16.0277078 L13.470869,14.0321159 L12.6727502,16.0277078 Z M14.8347606,17.3702771 L14.5771445,16.7632242 L12.3856521,16.7632242 L12.1287379,17.3835013 C12.0283588,17.6253149 11.9420188,17.7884131 11.8711217,17.872796 C11.8002246,17.9578086 11.6837007,18 11.5222519,18 C11.3846694,18 11.2632318,17.9552897 11.1579391,17.8646096 C11.0526464,17.7745592 11,17.6725441 11,17.5579345 C11,17.4924433 11.0119332,17.4238035 11.0365015,17.3539043 C11.0610698,17.2833753 11.101783,17.1851385 11.1579391,17.0598237 L12.5365717,13.9200252 C12.5758809,13.8299748 12.6229117,13.7216625 12.6783659,13.5950882 C12.7331181,13.4685139 12.792082,13.3639798 12.8545557,13.2802267 C12.9170293,13.1964736 12.9991577,13.1290932 13.1009406,13.0774559 C13.2027236,13.0258186 13.3283729,13 13.4778885,13 C13.630212,13 13.7565632,13.0258186 13.8583462,13.0774559 C13.9601292,13.1290932 14.0422575,13.1958438 14.1047312,13.2770781 C14.1672048,13.3583123 14.2198512,13.4458438 14.2626702,13.5390428 C14.3054893,13.6328715 14.3602415,13.7575567 14.4262249,13.913728 L15.8343395,17.034005 C15.9452478,17.2714106 16,17.4439547 16,17.5516373 C16,17.663728 15.9480556,17.7663728 15.8434648,17.8602015 C15.739576,17.9534005 15.6139267,18 15.4672189,18 C15.3808788,18 15.3078759,17.9861461 15.2461042,17.959068 C15.1850344,17.9313602 15.1337919,17.8942065 15.0916749,17.8469773 C15.0502597,17.7991184 15.0053348,17.7267003 14.9576021,17.6290932 C14.9098694,17.5308564 14.8691563,17.4445844 14.8347606,17.3702771 Z" id="Fill-8"></path>
            <path d="M19.7965163,17.1753105 L18.9654334,14.0430273 L18.9654334,17.4365476 C18.9654334,17.6247919 18.9215501,17.765655 18.8331083,17.8591369 C18.7446665,17.9532591 18.6271942,18 18.4813665,18 C18.3395895,18 18.2241426,17.9538993 18.1343505,17.8610578 C18.0452336,17.7682162 18,17.6267128 18,17.4365476 L18,13.546805 C18,13.3316686 18.0594113,13.1869638 18.1768836,13.1120502 C18.2950311,13.0371366 18.4536862,13 18.6541993,13 L18.9796111,13 C19.1753983,13 19.3171753,13.0166475 19.4056171,13.0505827 C19.4940589,13.0838776 19.5595463,13.1440645 19.6020794,13.2311436 C19.6446125,13.3188629 19.6925466,13.4603662 19.747232,13.6575746 L20.5,16.3499808 L21.2534432,13.6575746 C21.3074534,13.4603662 21.3560627,13.3188629 21.3985957,13.2311436 C21.4411288,13.1440645 21.5059411,13.0838776 21.5943829,13.0505827 C21.6828247,13.0166475 21.8252768,13 22.0203889,13 L22.3458007,13 C22.5463138,13 22.7056441,13.0371366 22.8237915,13.1120502 C22.9412638,13.1869638 23,13.3316686 23,13.546805 L23,17.4365476 C23,17.6247919 22.9561167,17.765655 22.8676749,17.8591369 C22.7792331,17.9532591 22.6604105,18 22.5125574,18 C22.3728058,18 22.2587092,17.9532591 22.1689171,17.8591369 C22.0798002,17.765655 22.0345666,17.6247919 22.0345666,17.4365476 L22.0345666,14.0430273 L21.2041588,17.1753105 C21.1494734,17.3789218 21.1055901,17.5281086 21.0711585,17.622871 C21.0374021,17.7182738 20.97394,17.8047125 20.8821226,17.8828275 C20.7903052,17.9609425 20.6627059,18 20.5,18 C20.3778018,18 20.273832,17.9750288 20.1887659,17.9250864 C20.1043748,17.8745038 20.0382123,17.8104751 19.9909533,17.7317198 C19.9436943,17.6536048 19.9065622,17.5671661 19.8795571,17.4724036 C19.852552,17.3770009 19.8248717,17.2783967 19.7965163,17.1753105" id="Fill-10"></path>
        </g>
    </g>
</svg>