<?xml version="1.0" encoding="UTF-8"?>
<svg width="26px" height="26px" viewBox="0 0 26 26" version="1.1" xmlns="http://www.w3.org/2000/svg" xmlns:xlink="http://www.w3.org/1999/xlink">
    <!-- Generator: Sketch 51.2 (57519) - http://www.bohemiancoding.com/sketch -->
    <title>Fill 1</title>
    <desc>Created with Sketch.</desc>
    <defs></defs>
    <g id="Page-1" stroke="none" stroke-width="1" fill="none" fill-rule="evenodd">
        <path d="M23.4,14.09824 C22.5395733,14.09824 21.84,13.3986667 21.84,12.53824 C21.84,11.6778133 22.5395733,10.97824 23.4,10.97824 C24.2604267,10.97824 24.96,11.6778133 24.96,12.53824 C24.96,13.3986667 24.2604267,14.09824 23.4,14.09824 M13,14.09824 C12.1395733,14.09824 11.44,13.3986667 11.44,12.53824 C11.44,11.6778133 12.1395733,10.97824 13,10.97824 C13.8604267,10.97824 14.56,11.6778133 14.56,12.53824 C14.56,13.3986667 13.8604267,14.09824 13,14.09824 M16.02224,23.4 C16.02224,24.2604267 15.3226667,24.96 14.46224,24.96 C13.6018133,24.96 12.90224,24.2604267 12.90224,23.4 C12.90224,22.5402667 13.6018133,21.84 14.46224,21.84 C15.3226667,21.84 16.02224,22.5402667 16.02224,23.4 M4.69733333,21.7249067 C3.8376,21.7249067 3.13733333,21.0253333 3.13733333,20.1649067 C3.13733333,19.30448 3.8376,18.6049067 4.69733333,18.6049067 C5.55776,18.6049067 6.25733333,19.30448 6.25733333,20.1649067 C6.25733333,21.0253333 5.55776,21.7249067 4.69733333,21.7249067 M9.70666667,3.81333333 C9.70666667,2.9536 10.40624,2.25333333 11.2666667,2.25333333 C12.1270933,2.25333333 12.8266667,2.9536 12.8266667,3.81333333 C12.8266667,4.67376 12.1270933,5.37333333 11.2666667,5.37333333 C10.40624,5.37333333 9.70666667,4.67376 9.70666667,3.81333333 M23.4,1.04 C24.2604267,1.04 24.96,1.74026667 24.96,2.6 C24.96,3.46042667 24.2604267,4.16 23.4,4.16 C22.5395733,4.16 21.84,3.46042667 21.84,2.6 C21.84,1.74026667 22.5395733,1.04 23.4,1.04 M2.6,9.18666667 C1.73957333,9.18666667 1.04,8.48709333 1.04,7.62666667 C1.04,6.76693333 1.73957333,6.06666667 2.6,6.06666667 C3.46042667,6.06666667 4.16,6.76693333 4.16,7.62666667 C4.16,8.48709333 3.46042667,9.18666667 2.6,9.18666667 M23.4,9.93824 C22.1443733,9.93824 21.0939733,10.83264 20.852,12.01824 L15.5473067,12.01824 C15.4842133,11.7069333 15.36288,11.41712 15.19856,11.1564267 L21.91904,4.73477333 C22.3398933,5.02736 22.8494933,5.2 23.4,5.2 C24.8338133,5.2 26,4.03381333 26,2.6 C26,1.16688 24.8338133,0 23.4,0 C21.9661867,0 20.8,1.16688 20.8,2.6 C20.8,3.10821333 20.9483733,3.58106667 21.20144,3.98181333 L14.48096,10.40416 C14.0635733,10.1136533 13.5588267,9.94170667 13.0138667,9.93893333 L12.2733867,6.21088 C13.2086933,5.81637333 13.8666667,4.89077333 13.8666667,3.81333333 C13.8666667,2.38021333 12.70048,1.21333333 11.2666667,1.21333333 C9.83285333,1.21333333 8.66666667,2.38021333 8.66666667,3.81333333 C8.66666667,5.24298667 9.82522667,6.40501333 11.2528,6.41264 L11.99328,10.1413867 C11.5654933,10.3216533 11.1973333,10.6149333 10.92208,10.9817067 L5.12304,8.24304 C5.17157333,8.04544 5.2,7.83952 5.2,7.62666667 C5.2,6.19354667 4.03381333,5.02666667 2.6,5.02666667 C1.16618667,5.02666667 0,6.19354667 0,7.62666667 C0,9.06048 1.16618667,10.2266667 2.6,10.2266667 C3.44933333,10.2266667 4.20298667,9.81552 4.67792,9.1832 L10.47696,11.9218667 C10.4284267,12.12016 10.4,12.3253867 10.4,12.53824 C10.4,13.0277333 10.5386667,13.48464 10.7750933,13.8763733 L6.2192,18.0613333 C5.79072,17.75072 5.26586667,17.5649067 4.69733333,17.5649067 C3.26352,17.5649067 2.09733333,18.7310933 2.09733333,20.1649067 C2.09733333,21.59872 3.26352,22.7649067 4.69733333,22.7649067 C6.13114667,22.7649067 7.29733333,21.59872 7.29733333,20.1649067 C7.29733333,19.6754133 7.15866667,19.2185067 6.92293333,18.8267733 L11.4781333,14.6418133 C11.86224,14.9205333 12.3233067,15.0952533 12.8238933,15.1292267 L13.60736,20.94768 C12.5930133,21.3019733 11.86224,22.2664 11.86224,23.4 C11.86224,24.8338133 13.0284267,26 14.46224,26 C15.8960533,26 17.06224,24.8338133 17.06224,23.4 C17.06224,22.0258133 15.9896533,20.9005333 14.6376533,20.8090133 L13.85488,14.99056 C14.70976,14.6917333 15.3635733,13.9602667 15.5473067,13.05824 L20.852,13.05824 C21.0939733,14.24384 22.1443733,15.13824 23.4,15.13824 C24.8338133,15.13824 26,13.9720533 26,12.53824 C26,11.1044267 24.8338133,9.93824 23.4,9.93824" id="Fill-1" fill="#FFFFFF"></path>
    </g>
</svg>