<?xml version="1.0" encoding="UTF-8"?>
<svg width="26px" height="26px" viewBox="0 0 26 26" version="1.1" xmlns="http://www.w3.org/2000/svg" xmlns:xlink="http://www.w3.org/1999/xlink">
    <!-- Generator: Sketch 51.2 (57519) - http://www.bohemiancoding.com/sketch -->
    <title>Slice</title>
    <desc>Created with Sketch.</desc>
    <defs></defs>
    <g id="Page-1" stroke="none" stroke-width="1" fill="none" fill-rule="evenodd">
        <g id="Group-10" transform="translate(3.000000, 0.000000)" fill="#596274">
            <path d="M4.96213333,20.8333333 C4.68613333,20.8333333 4.46213333,21.0573333 4.46213333,21.3333333 L4.46213333,24.1666667 C4.46213333,24.4426667 4.68613333,24.6666667 4.96213333,24.6666667 L14.2394667,24.6666667 C14.5154667,24.6666667 14.7394667,24.4426667 14.7394667,24.1666667 L14.7394667,21.3333333 C14.7394667,21.0573333 14.5154667,20.8333333 14.2394667,20.8333333 L4.96213333,20.8333333 Z M14.2394667,25.6666667 L4.96213333,25.6666667 C4.1348,25.6666667 3.46213333,24.994 3.46213333,24.1666667 L3.46213333,21.3333333 C3.46213333,20.506 4.1348,19.8333333 4.96213333,19.8333333 L14.2394667,19.8333333 C15.0668,19.8333333 15.7394667,20.506 15.7394667,21.3333333 L15.7394667,24.1666667 C15.7394667,24.994 15.0668,25.6666667 14.2394667,25.6666667 Z" id="Fill-1"></path>
            <path d="M15.5666,9.63233333 C15.8579333,8.30566667 16.0699333,6.70766667 16.1926,4.785 L18.1739333,4.785 C18.1799333,4.785 18.1852667,4.785 18.1912667,4.785 C18.0492667,6.87566667 17.0252667,8.65433333 15.5666,9.63233333 M9.6006,14.6943333 C7.5366,14.6943333 4.0846,14.6943333 3.89126667,1.675 C3.91393333,1.671 3.94793333,1.66633333 3.99593333,1.66633333 L15.2612667,1.66633333 C15.2819333,1.66633333 15.2979333,1.66833333 15.3106,1.67033333 C15.1179333,14.6943333 11.6652667,14.6943333 9.6006,14.6943333 M11.4926,18.2636667 L7.70993333,18.2636667 C8.33793333,17.4663333 8.85926667,16.6016667 9.26193333,15.6876667 C9.37393333,15.6916667 9.4866,15.6943333 9.6006,15.6943333 C9.71526667,15.6943333 9.82793333,15.6916667 9.93993333,15.6876667 C10.3426,16.6016667 10.8639333,17.4663333 11.4926,18.2636667 M1.01126667,4.785 C1.0166,4.785 1.02193333,4.785 1.02793333,4.785 L3.0086,4.785 C3.13193333,6.707 3.34326667,8.30433333 3.6346,9.631 C2.17926667,8.65366667 1.1566,6.87766667 1.01126667,4.785 M18.9972667,4.06433333 C18.8179333,3.87633333 18.5486,3.785 18.1739333,3.785 L16.2472667,3.785 C16.2792667,3.09166667 16.3012667,2.363 16.3119333,1.59033333 C16.3146,1.375 16.2152667,1.145 16.0472667,0.974333333 C15.9092667,0.833666667 15.6599333,0.666333333 15.2612667,0.666333333 L3.99593333,0.666333333 C3.5506,0.666333333 3.29193333,0.834333333 3.15326667,0.975 C2.91126667,1.22033333 2.88926667,1.509 2.8906,1.62233333 C2.9006,2.38233333 2.9226,3.10166667 2.95393333,3.785 L1.02793333,3.785 C0.653933333,3.785 0.383933333,3.87633333 0.2046,4.06433333 C-0.0140666667,4.293 -0.00273333333,4.56166667 0.00126666667,4.64966667 C0.127933333,7.55033333 1.7466,9.96366667 3.97726667,10.953 C4.9046,13.9976667 6.37926667,15.2216667 8.23526667,15.5756667 C7.77326667,16.5376667 7.17793333,17.4416667 6.4626,18.2636667 L5.9826,18.2636667 C5.7066,18.2636667 5.4826,18.4876667 5.4826,18.7636667 C5.4826,19.0403333 5.7066,19.2636667 5.9826,19.2636667 L13.2192667,19.2636667 C13.4952667,19.2636667 13.7192667,19.0403333 13.7192667,18.7636667 C13.7192667,18.4876667 13.4952667,18.2636667 13.2192667,18.2636667 L12.7392667,18.2636667 C12.0239333,17.4416667 11.4286,16.5376667 10.9666,15.575 C12.8219333,15.2216667 14.2959333,13.9976667 15.2239333,10.9536667 C17.4552667,9.96433333 19.0739333,7.551 19.2006,4.64966667 C19.2046,4.56166667 19.2159333,4.293 18.9972667,4.06433333" id="Fill-3"></path>
            <path d="M13.0697333,21.875 C13.0697333,22.151 12.8457333,22.375 12.5697333,22.375 L6.6324,22.375 C6.3564,22.375 6.1324,22.151 6.1324,21.875 C6.1324,21.599 6.3564,21.375 6.6324,21.375 L12.5697333,21.375 C12.8457333,21.375 13.0697333,21.599 13.0697333,21.875" id="Fill-6"></path>
            <path d="M13.0697333,23.625 C13.0697333,23.901 12.8457333,24.125 12.5697333,24.125 L6.6324,24.125 C6.3564,24.125 6.1324,23.901 6.1324,23.625 C6.1324,23.349 6.3564,23.125 6.6324,23.125 L12.5697333,23.125 C12.8457333,23.125 13.0697333,23.349 13.0697333,23.625" id="Fill-8"></path>
        </g>
    </g>
</svg>