<?xml version="1.0" encoding="UTF-8"?>
<svg width="26px" height="26px" viewBox="0 0 26 26" version="1.1" xmlns="http://www.w3.org/2000/svg" xmlns:xlink="http://www.w3.org/1999/xlink">
    <!-- Generator: Sketch 51.2 (57519) - http://www.bohemiancoding.com/sketch -->
    <title>Slice</title>
    <desc>Created with Sketch.</desc>
    <defs></defs>
    <g id="Page-1" stroke="none" stroke-width="1" fill="none" fill-rule="evenodd">
        <path d="M13,8.64422915 C12.6873067,8.64422915 12.4994133,8.50835607 12.47792,8.48230786 C12.4994133,8.42809942 12.6873067,8.29222634 13,8.29222634 C13.3126933,8.29222634 13.4998933,8.42809942 13.52208,8.45414763 C13.4998933,8.50835607 13.3126933,8.64422915 13,8.64422915 Z M18.4190933,11.373659 C18.2409067,11.1490812 18.0322133,10.9568877 17.8048,10.8294626 L14.44144,8.94554356 C14.5177067,8.7998144 14.56,8.63859711 14.56,8.46822775 C14.56,7.77759822 13.8749867,7.23621789 13,7.23621789 C12.1250133,7.23621789 11.44,7.77759822 11.44,8.46822775 C11.44,9.15885727 12.1250133,9.7002376 13,9.7002376 C13.1802667,9.7002376 13.34944,9.67207738 13.5096,9.62983704 L17.3021333,11.753822 C17.3437333,11.7777582 17.3853333,11.8066225 17.4255467,11.8397107 L13.7702933,13.5532604 C13.3841067,13.7348939 12.6158933,13.7348939 12.2297067,13.5539644 L1.17936,8.37248298 L12.2297067,3.19100153 C12.6158933,3.00936807 13.3841067,3.00936807 13.7702933,3.19029752 L24.82064,8.37248298 L18.4190933,11.373659 Z M20.0602133,14.4705798 C20.0602133,15.3505868 19.6615467,16.1693454 18.9834667,16.8656069 L18.9834667,12.8577029 C18.9834667,12.6795894 18.95296,12.494436 18.9016533,12.3106905 L20.0602133,11.7671981 L20.0602133,14.4705798 Z M13,19.005784 C9.10693333,19.005784 5.93978667,16.9712078 5.93978667,14.4705798 L5.93978667,11.7671981 L11.7936,14.5128201 C12.1236267,14.6669973 12.5521067,14.752182 13,14.752182 C13.4478933,14.752182 13.8763733,14.6669973 14.2057067,14.5121161 L17.9351467,12.7640701 C17.9386133,12.7957504 17.9434667,12.8274306 17.9434667,12.8577029 L17.9434667,17.7026696 C16.66912,18.5073481 14.924,19.005784 13,19.005784 Z M25.2900267,7.42981944 L14.2057067,2.23144185 C13.5463467,1.92308738 12.4536533,1.92238338 11.7936,2.23214586 L0.709973333,7.42911543 C0.0693333333,7.72972584 0,8.18873751 0,8.37248298 C0,8.55552444 0.0693333333,9.01453612 0.70928,9.31444252 L4.89978667,11.2800262 L4.89978667,14.4705798 C4.89978667,17.5534204 8.53354667,20.0617925 13,20.0617925 C14.8602133,20.0617925 16.5748267,19.625309 17.9434667,18.8945512 L17.9434667,19.747102 C17.6564267,19.747102 17.4234667,19.9836479 17.4234667,20.2751062 C17.4234667,20.4511076 17.50944,20.6059888 17.64048,20.7024376 L16.4424,22.8088225 C16.29888,23.0608565 16.38416,23.3839951 16.6330667,23.5297242 C16.8819733,23.6754534 17.19952,23.5888607 17.34304,23.3368267 L17.9434667,22.2808182 L17.9434667,23.4719958 C17.9434667,23.7641581 18.1764267,24 18.4634667,24 C18.7512,24 18.9834667,23.7641581 18.9834667,23.4719958 L18.9834667,22.2808182 L19.5845867,23.3368267 C19.7281067,23.5888607 20.0456533,23.6754534 20.29456,23.5297242 C20.5434667,23.3839951 20.6287467,23.0608565 20.4852267,22.8088225 L19.2871467,20.7024376 C19.4181867,20.6059888 19.5034667,20.4511076 19.5034667,20.2751062 C19.5034667,19.9836479 19.2712,19.747102 18.9834667,19.747102 L18.9834667,18.2348979 C20.2973333,17.2401379 21.1002133,15.9187193 21.1002133,14.4705798 L21.1002133,11.2800262 L25.2900267,9.31514652 C25.9306667,9.01453612 26,8.55552444 26,8.37248298 C26,8.18873751 25.9306667,7.72972584 25.2900267,7.42981944 Z" id="Fill-1" fill="#596274"></path>
    </g>
</svg>