<?xml version="1.0" encoding="UTF-8"?>
<svg width="42px" height="46px" viewBox="0 0 42 46" version="1.1" xmlns="http://www.w3.org/2000/svg" xmlns:xlink="http://www.w3.org/1999/xlink">
    <!-- Generator: Sketch 51.2 (57519) - http://www.bohemiancoding.com/sketch -->
    <title>Slice</title>
    <desc>Created with Sketch.</desc>
    <defs>
        <path d="M23.1019996,0 C22.8307976,0.000168139361 22.5577552,0.0781848029 22.3307218,0.229173949 C20.6424431,1.21951479 19.0967087,2.45870188 17.7597713,3.89124923 C14.1961666,7.69456158 12.2102517,12.9304213 12.344096,18.1528298 C12.4126912,21.643403 13.4334214,25.0969854 15.2167295,28.0898661 C12.4227296,29.315602 9.15190927,29.3172834 6.34452491,28.1319009 C7.48220153,26.154582 8.62322426,24.1806259 9.76926614,22.2100326 C10.1707991,21.5610147 10.346637,20.7573085 10.137338,20.0124512 C9.97672482,19.3096286 9.46477034,18.7715827 8.90764341,18.3545971 C6.80812813,21.9544608 4.73337405,25.569457 2.64707589,29.1777277 C3.6477294,29.751083 4.64302914,30.3496591 5.72716804,30.7565563 C8.90262425,32.0041504 12.5299723,31.9957434 15.7136265,30.7784144 C18.4524156,29.7594899 20.8164407,27.8174803 22.4227397,25.3744154 C23.7007856,25.4719362 24.957249,25.7678615 26.1451173,26.2521028 C24.5774658,29.0028628 22.3288814,31.3853975 19.581727,32.9625447 C16.4480971,34.7481848 12.7757439,35.5804746 9.1836973,35.257647 C6.20398838,35.0239333 3.36648905,33.899081 0.843523839,32.3252966 C0.589386958,32.7775914 0.296435229,33.211391 0.0924899639,33.6905882 C-0.156962366,34.2773945 0.11909152,35.0020752 0.669526238,35.304726 C2.44630943,36.3337389 4.3870519,37.0802777 6.38969736,37.5275284 C7.78920691,37.8422853 9.22016987,37.9973098 10.6516347,38 L10.7224049,38 C15.0408915,37.9931063 19.3610512,36.6022575 22.8475281,34.0352739 C25.1613616,32.3252966 27.0468933,30.0772733 28.4758486,27.5820852 C30.9099746,29.4013531 32.5596057,32.216006 32.9427351,35.2408331 C31.8893804,35.2475587 30.836193,35.2457091 29.7830056,35.2438596 C28.445399,35.2416738 27.1077924,35.2393198 25.7703532,35.2542842 C24.3633149,35.266054 23.237517,36.5371876 23.177287,37.9142489 C25.7772127,37.9226559 28.3779749,37.9211426 30.9789045,37.9197975 C32.5519097,37.9189568 34.1250822,37.9181161 35.6982548,37.9192931 C35.704947,36.4917899 35.6999278,35.0491542 35.3736823,33.6519161 C34.7113203,30.5867356 32.9646521,27.7804896 30.5318645,25.8183033 C28.2732418,23.9704517 25.4257041,22.8842714 22.5212826,22.7127693 C21.9542847,21.5610147 21.5860455,20.3184648 21.4120479,19.0473312 C22.0729042,19.0523754 22.7354335,19.0691893 23.3946167,19.1330823 C28.6965244,19.5937842 33.7056476,22.6337438 36.5466604,27.1617368 C38.5643633,30.3395707 39.4475684,34.1563342 39.3271086,37.9041606 C39.4917371,37.9013022 39.6567002,37.9029836 39.8216633,37.904665 C40.2133252,37.9087003 40.6049871,37.9129038 40.9934702,37.8537188 C41.5991157,37.7259328 42.0374558,37.1139056 41.9974698,36.4985155 C41.9889372,34.1109366 41.5505971,31.725039 40.7123972,29.4904669 C38.9573637,24.7741579 35.3519326,20.8296085 30.9133207,18.5260992 C27.9838034,17.0195705 24.676176,16.3386061 21.3969904,16.372234 C21.7684084,13.3474069 23.3795592,10.5058517 25.8088334,8.67481405 C26.9834845,10.699212 28.1494358,12.728654 29.3239196,14.7547333 C30.0148908,16.0527692 31.7364632,16.4411711 33.002965,15.7887904 C30.9350704,12.16875 28.8320417,8.56720486 26.7524358,4.95388999 C25.7870837,5.50706849 24.8083472,6.04679584 23.9400323,6.74793697 C21.321703,8.80091857 19.5032608,11.8391968 18.9058132,15.1212772 C18.338648,18.0973438 18.7903725,21.2482755 20.1539114,23.950275 C19.4430308,25.0230041 18.5529662,25.9679473 17.5389282,26.7548395 C15.634993,23.5921382 14.7399091,19.8224537 15.0845582,16.1385203 C15.4074576,12.4226404 16.9516863,8.82445808 19.4244599,6.04175166 C20.9519581,4.27628837 22.8826622,2.9261293 24.9204418,1.8214537 C24.6343496,1.34057513 24.398449,0.822705893 24.0370694,0.393950523 C23.7961496,0.128290332 23.4523371,0.000336278722 23.1051784,0 L23.1019996,0 Z" id="path-1"></path>
        <linearGradient x1="11.380755%" y1="42.2767942%" x2="106.309247%" y2="70.5304218%" id="linearGradient-3">
            <stop stop-color="#C3EBF6" offset="0%"></stop>
            <stop stop-color="#6087A3" offset="100%"></stop>
        </linearGradient>
    </defs>
    <g id="Page-1" stroke="none" stroke-width="1" fill="none" fill-rule="evenodd">
        <g id="Group-3" transform="translate(0.000000, 4.000000)">
            <mask id="mask-2" fill="white">
                <use xlink:href="#path-1"></use>
            </mask>
            <g id="Clip-2"></g>
            <path d="M23.1019996,0 C22.8307976,0.000168139361 22.5577552,0.0781848029 22.3307218,0.229173949 C20.6424431,1.21951479 19.0967087,2.45870188 17.7597713,3.89124923 C14.1961666,7.69456158 12.2102517,12.9304213 12.344096,18.1528298 C12.4126912,21.643403 13.4334214,25.0969854 15.2167295,28.0898661 C12.4227296,29.315602 9.15190927,29.3172834 6.34452491,28.1319009 C7.48220153,26.154582 8.62322426,24.1806259 9.76926614,22.2100326 C10.1707991,21.5610147 10.346637,20.7573085 10.137338,20.0124512 C9.97672482,19.3096286 9.46477034,18.7715827 8.90764341,18.3545971 C6.80812813,21.9544608 4.73337405,25.569457 2.64707589,29.1777277 C3.6477294,29.751083 4.64302914,30.3496591 5.72716804,30.7565563 C8.90262425,32.0041504 12.5299723,31.9957434 15.7136265,30.7784144 C18.4524156,29.7594899 20.8164407,27.8174803 22.4227397,25.3744154 C23.7007856,25.4719362 24.957249,25.7678615 26.1451173,26.2521028 C24.5774658,29.0028628 22.3288814,31.3853975 19.581727,32.9625447 C16.4480971,34.7481848 12.7757439,35.5804746 9.1836973,35.257647 C6.20398838,35.0239333 3.36648905,33.899081 0.843523839,32.3252966 C0.589386958,32.7775914 0.296435229,33.211391 0.0924899639,33.6905882 C-0.156962366,34.2773945 0.11909152,35.0020752 0.669526238,35.304726 C2.44630943,36.3337389 4.3870519,37.0802777 6.38969736,37.5275284 C7.78920691,37.8422853 9.22016987,37.9973098 10.6516347,38 L10.7224049,38 C15.0408915,37.9931063 19.3610512,36.6022575 22.8475281,34.0352739 C25.1613616,32.3252966 27.0468933,30.0772733 28.4758486,27.5820852 C30.9099746,29.4013531 32.5596057,32.216006 32.9427351,35.2408331 C31.8893804,35.2475587 30.836193,35.2457091 29.7830056,35.2438596 C28.445399,35.2416738 27.1077924,35.2393198 25.7703532,35.2542842 C24.3633149,35.266054 23.237517,36.5371876 23.177287,37.9142489 C25.7772127,37.9226559 28.3779749,37.9211426 30.9789045,37.9197975 C32.5519097,37.9189568 34.1250822,37.9181161 35.6982548,37.9192931 C35.704947,36.4917899 35.6999278,35.0491542 35.3736823,33.6519161 C34.7113203,30.5867356 32.9646521,27.7804896 30.5318645,25.8183033 C28.2732418,23.9704517 25.4257041,22.8842714 22.5212826,22.7127693 C21.9542847,21.5610147 21.5860455,20.3184648 21.4120479,19.0473312 C22.0729042,19.0523754 22.7354335,19.0691893 23.3946167,19.1330823 C28.6965244,19.5937842 33.7056476,22.6337438 36.5466604,27.1617368 C38.5643633,30.3395707 39.4475684,34.1563342 39.3271086,37.9041606 C39.4917371,37.9013022 39.6567002,37.9029836 39.8216633,37.904665 C40.2133252,37.9087003 40.6049871,37.9129038 40.9934702,37.8537188 C41.5991157,37.7259328 42.0374558,37.1139056 41.9974698,36.4985155 C41.9889372,34.1109366 41.5505971,31.725039 40.7123972,29.4904669 C38.9573637,24.7741579 35.3519326,20.8296085 30.9133207,18.5260992 C27.9838034,17.0195705 24.676176,16.3386061 21.3969904,16.372234 C21.7684084,13.3474069 23.3795592,10.5058517 25.8088334,8.67481405 C26.9834845,10.699212 28.1494358,12.728654 29.3239196,14.7547333 C30.0148908,16.0527692 31.7364632,16.4411711 33.002965,15.7887904 C30.9350704,12.16875 28.8320417,8.56720486 26.7524358,4.95388999 C25.7870837,5.50706849 24.8083472,6.04679584 23.9400323,6.74793697 C21.321703,8.80091857 19.5032608,11.8391968 18.9058132,15.1212772 C18.338648,18.0973438 18.7903725,21.2482755 20.1539114,23.950275 C19.4430308,25.0230041 18.5529662,25.9679473 17.5389282,26.7548395 C15.634993,23.5921382 14.7399091,19.8224537 15.0845582,16.1385203 C15.4074576,12.4226404 16.9516863,8.82445808 19.4244599,6.04175166 C20.9519581,4.27628837 22.8826622,2.9261293 24.9204418,1.8214537 C24.6343496,1.34057513 24.398449,0.822705893 24.0370694,0.393950523 C23.7961496,0.128290332 23.4523371,0.000336278722 23.1051784,0 L23.1019996,0 Z" id="Fill-1" fill="url(#linearGradient-3)" mask="url(#mask-2)"></path>
        </g>
    </g>
</svg>